<svg width="1512" height="205" viewBox="0 0 1512 205" fill="none" xmlns="http://www.w3.org/2000/svg">
<rect x="-2" y="44" width="1514" height="160" fill="#8090A2"/>
<line x1="36.5" y1="41.9941" x2="36.5" y2="204.006" stroke="#62758A"/>
<line x1="336.5" y1="42" x2="336.5" y2="204.012" stroke="#62758A"/>
<line x1="636.5" y1="42" x2="636.5" y2="204.012" stroke="#62758A"/>
<line x1="936.5" y1="42" x2="936.5" y2="204.012" stroke="#62758A"/>
<line x1="1236.5" y1="42" x2="1236.5" y2="204.012" stroke="#62758A"/>
<line x1="96.5" y1="42" x2="96.5" y2="204.012" stroke="#62758A"/>
<line x1="396.5" y1="42.0059" x2="396.5" y2="204.018" stroke="#62758A"/>
<line x1="696.5" y1="42.0059" x2="696.5" y2="204.018" stroke="#62758A"/>
<line x1="996.5" y1="42.0059" x2="996.5" y2="204.018" stroke="#62758A"/>
<line x1="1296.5" y1="42.0059" x2="1296.5" y2="204.018" stroke="#62758A"/>
<line x1="156.5" y1="42" x2="156.5" y2="204.012" stroke="#62758A"/>
<line x1="456.5" y1="42.0059" x2="456.5" y2="204.018" stroke="#62758A"/>
<line x1="756.5" y1="42.0059" x2="756.5" y2="204.018" stroke="#62758A"/>
<line x1="1056.5" y1="42.0059" x2="1056.5" y2="204.018" stroke="#62758A"/>
<line x1="1356.5" y1="42.0059" x2="1356.5" y2="204.018" stroke="#62758A"/>
<line x1="216.5" y1="42" x2="216.5" y2="204.012" stroke="#62758A"/>
<line x1="516.5" y1="42.0059" x2="516.5" y2="204.018" stroke="#62758A"/>
<line x1="816.5" y1="42.0059" x2="816.5" y2="204.018" stroke="#62758A"/>
<line x1="1116.5" y1="42.0059" x2="1116.5" y2="204.018" stroke="#62758A"/>
<line x1="1416.5" y1="42.0059" x2="1416.5" y2="204.018" stroke="#62758A"/>
<line x1="276.5" y1="42" x2="276.5" y2="204.012" stroke="#62758A"/>
<line x1="576.5" y1="42.0059" x2="576.5" y2="204.018" stroke="#62758A"/>
<line x1="876.5" y1="42.0059" x2="876.5" y2="204.018" stroke="#62758A"/>
<line x1="1176.5" y1="42.0059" x2="1176.5" y2="204.018" stroke="#62758A"/>
<line x1="1476.5" y1="42.0059" x2="1476.5" y2="204.018" stroke="#62758A"/>
<rect width="1512" height="44" fill="#62758A"/>
</svg>
