<svg width="1512" height="970" viewBox="0 0 1512 970" fill="none" xmlns="http://www.w3.org/2000/svg">
<rect x="-2" y="44" width="1526" height="926" fill="#8090A2"/>
<line x1="36.5" y1="14" x2="36.5" y2="970" stroke="#6F7F91"/>
<line x1="336.5" y1="14" x2="336.5" y2="970" stroke="#6F7F91"/>
<line x1="636.5" y1="14" x2="636.5" y2="970" stroke="#6F7F91"/>
<line x1="936.5" y1="14" x2="936.5" y2="970" stroke="#6F7F91"/>
<line x1="1236.5" y1="14" x2="1236.5" y2="970" stroke="#6F7F91"/>
<line x1="96.5" y1="14" x2="96.5" y2="970" stroke="#6F7F91"/>
<line x1="396.5" y1="14" x2="396.5" y2="970" stroke="#6F7F91"/>
<line x1="696.5" y1="14" x2="696.5" y2="970" stroke="#6F7F91"/>
<line x1="996.5" y1="14" x2="996.5" y2="970" stroke="#6F7F91"/>
<line x1="1296.5" y1="14" x2="1296.5" y2="970" stroke="#6F7F91"/>
<line x1="156.5" y1="14" x2="156.5" y2="970" stroke="#6F7F91"/>
<line x1="456.5" y1="14" x2="456.5" y2="970" stroke="#6F7F91"/>
<line x1="756.5" y1="14" x2="756.5" y2="970" stroke="#6F7F91"/>
<line x1="1056.5" y1="14" x2="1056.5" y2="970" stroke="#6F7F91"/>
<line x1="1356.5" y1="14" x2="1356.5" y2="970" stroke="#6F7F91"/>
<line x1="216.5" y1="14" x2="216.5" y2="970" stroke="#6F7F91"/>
<line x1="516.5" y1="14" x2="516.5" y2="970" stroke="#6F7F91"/>
<line x1="816.5" y1="14" x2="816.5" y2="970" stroke="#6F7F91"/>
<line x1="1116.5" y1="14" x2="1116.5" y2="970" stroke="#6F7F91"/>
<line x1="1416.5" y1="14" x2="1416.5" y2="970" stroke="#6F7F91"/>
<line x1="276.5" y1="14" x2="276.5" y2="970" stroke="#6F7F91"/>
<line x1="576.5" y1="14" x2="576.5" y2="970" stroke="#6F7F91"/>
<line x1="876.5" y1="14" x2="876.5" y2="970" stroke="#6F7F91"/>
<line x1="1176.5" y1="14" x2="1176.5" y2="970" stroke="#6F7F91"/>
<line x1="1476.5" y1="14" x2="1476.5" y2="970" stroke="#6F7F91"/>
<rect x="-2" width="1546" height="44" fill="#62758A"/>
</svg>
