<svg width="248" height="87" viewBox="0 0 248 87" fill="none" xmlns="http://www.w3.org/2000/svg">
<path d="M234.117 1H13.8828C13.8828 10.8551 5.29426 13.3188 1 13.3188V72.4493C12.2878 72.4493 14.2918 81.4831 13.8828 86H234.117C234.117 75.1594 242.706 72.4493 247 72.4493V13.3188C236.694 12.8261 234.117 4.90097 234.117 1Z" fill="#6F7F91" stroke="#6F7F91"/>
<path d="M227.85 7H20.1496C20.1496 15.4638 12.0499 17.5797 8 17.5797V68.3623C18.6454 68.3623 20.5353 76.1208 20.1496 80H227.85C227.85 70.6899 235.95 68.3623 240 68.3623V17.5797C230.28 17.1565 227.85 10.3502 227.85 7Z" stroke="white" stroke-width="2"/>
<path d="M83 34.0781C81.5521 34.0781 80.2865 33.3281 79.2031 31.8281C79.1198 31.7135 79.0104 31.5573 78.875 31.3594C78.75 31.1615 78.5156 30.8125 78.1719 30.3125C78.0052 30.0729 77.8542 29.875 77.7188 29.7188C77.5938 29.5521 77.4427 29.4271 77.2656 29.3438C77.099 29.2604 76.8698 29.2188 76.5781 29.2188C76.4635 29.2188 76.3698 29.2344 76.2969 29.2656C76.2344 29.2969 76.2031 29.3698 76.2031 29.4844V31.7812C76.2031 32.4688 76.2448 32.9219 76.3281 33.1406C76.3698 33.224 76.4688 33.3021 76.625 33.375C76.7917 33.4479 76.9688 33.5052 77.1562 33.5469C77.3438 33.5781 77.4792 33.5938 77.5625 33.5938C77.6042 33.5938 77.625 33.6667 77.625 33.8125C77.625 33.8854 77.6146 33.9635 77.5938 34.0469C77.0729 34.026 76.6406 34.0052 76.2969 33.9844C75.9635 33.9635 75.7188 33.9583 75.5625 33.9688L73.6562 34.0469C73.625 34.0156 73.6094 33.9219 73.6094 33.7656C73.6094 33.6302 73.625 33.5625 73.6562 33.5625C73.7604 33.5625 73.8854 33.5469 74.0312 33.5156C74.1875 33.4844 74.3333 33.4479 74.4688 33.4062C74.6146 33.3542 74.7031 33.2969 74.7344 33.2344C74.8073 33.1198 74.8438 32.6302 74.8438 31.7656V25.8594C74.8438 25.5573 74.8333 25.2917 74.8125 25.0625C74.8021 24.8333 74.776 24.651 74.7344 24.5156C74.7135 24.4531 74.6302 24.3958 74.4844 24.3438C74.349 24.2917 74.1979 24.25 74.0312 24.2188C73.875 24.1875 73.75 24.1719 73.6562 24.1719C73.6146 24.1719 73.5938 24.1094 73.5938 23.9844C73.5938 23.849 73.6146 23.7604 73.6562 23.7188L75.5312 23.75C75.8333 23.7604 76.2031 23.7552 76.6406 23.7344C77.0781 23.7031 77.4427 23.6875 77.7344 23.6875C78.2969 23.6875 78.8333 23.7969 79.3438 24.0156C79.8646 24.2344 80.2865 24.5573 80.6094 24.9844C80.9427 25.4115 81.1094 25.9323 81.1094 26.5469C81.1094 26.9844 80.9427 27.4427 80.6094 27.9219C80.2865 28.401 79.8438 28.7708 79.2812 29.0312C79.1771 29.0729 79.1458 29.125 79.1875 29.1875C79.6979 30.2708 80.2969 31.1875 80.9844 31.9375C81.9844 33.0312 82.7969 33.5781 83.4219 33.5781C83.4531 33.6406 83.4688 33.7135 83.4688 33.7969C83.4688 33.8906 83.4531 33.9688 83.4219 34.0312C83.3177 34.0625 83.1771 34.0781 83 34.0781ZM77.5625 28.5469H77.9531C78.2031 28.5469 78.4583 28.4635 78.7188 28.2969C78.9896 28.1302 79.2135 27.8958 79.3906 27.5938C79.5781 27.2917 79.6719 26.9427 79.6719 26.5469C79.6719 25.099 78.9427 24.375 77.4844 24.375C77.0052 24.375 76.6406 24.4115 76.3906 24.4844C76.2969 24.5052 76.2396 24.6771 76.2188 25C76.2083 25.3125 76.2031 25.7135 76.2031 26.2031V28.0938C76.2031 28.3958 76.6562 28.5469 77.5625 28.5469ZM91.0469 34.0625C90.7865 34.0625 90.4427 34.0573 90.0156 34.0469C89.599 34.0469 89.1042 34.0417 88.5312 34.0312C87.9583 34.0208 87.4375 34.0104 86.9688 34C86.5 34 86.0833 34 85.7188 34L83.8281 34.0469C83.7969 34.0156 83.7812 33.9323 83.7812 33.7969C83.7812 33.6615 83.7969 33.5938 83.8281 33.5938C83.9219 33.5938 84.0469 33.5781 84.2031 33.5469C84.3594 33.5052 84.5052 33.4583 84.6406 33.4062C84.7865 33.3542 84.875 33.2969 84.9062 33.2344C84.9792 33.1198 85.0156 32.6302 85.0156 31.7656V25.8594C85.0156 25.5573 85.0052 25.2917 84.9844 25.0625C84.974 24.8333 84.9479 24.651 84.9062 24.5156C84.8854 24.4531 84.8021 24.3958 84.6562 24.3438C84.5208 24.2917 84.3698 24.25 84.2031 24.2188C84.0469 24.1875 83.9219 24.1719 83.8281 24.1719C83.7865 24.1719 83.7656 24.1094 83.7656 23.9844C83.7656 23.849 83.7865 23.7604 83.8281 23.7188C84.099 23.7292 84.3854 23.7396 84.6875 23.75C85 23.75 85.3333 23.75 85.6875 23.75C85.9271 23.75 86.25 23.7448 86.6562 23.7344C87.0625 23.724 87.5521 23.7083 88.125 23.6875C88.7083 23.6667 89.2135 23.651 89.6406 23.6406C90.0781 23.6302 90.4427 23.625 90.7344 23.625C90.7552 23.7708 90.7865 23.9479 90.8281 24.1562C90.8698 24.3542 90.9219 24.5729 90.9844 24.8125C91.0365 25.0625 91.0781 25.2656 91.1094 25.4219C91.151 25.5781 91.1771 25.6875 91.1875 25.75C91.1354 25.8021 91.0417 25.8281 90.9062 25.8281C90.7708 25.8281 90.6979 25.7917 90.6875 25.7188C90.5312 25.1458 90.3125 24.7812 90.0312 24.625C89.75 24.4583 89.3646 24.375 88.875 24.375H87.8281C86.9219 24.375 86.4635 24.4427 86.4531 24.5781C86.4323 24.7031 86.4115 24.875 86.3906 25.0938C86.3802 25.3125 86.375 25.5781 86.375 25.8906V28.3906C86.375 28.4531 86.599 28.4844 87.0469 28.4844H87.875C88.2292 28.4844 88.4688 28.4844 88.5938 28.4844C88.7188 28.474 88.8073 28.4583 88.8594 28.4375C88.9219 28.4167 89.0365 28.3854 89.2031 28.3438C89.3073 28.3229 89.3854 28.2031 89.4375 27.9844C89.5 27.7552 89.5521 27.5677 89.5938 27.4219C89.6042 27.349 89.6823 27.3125 89.8281 27.3125C89.9531 27.3125 90.0417 27.3385 90.0938 27.3906V30.3438C90.0521 30.3854 89.9688 30.4062 89.8438 30.4062C89.7083 30.4062 89.625 30.3646 89.5938 30.2812C89.5521 30.1354 89.5156 30.0104 89.4844 29.9062C89.4531 29.8021 89.4271 29.7135 89.4062 29.6406C89.3542 29.4948 89.3125 29.4115 89.2812 29.3906C89.2604 29.3698 89.2188 29.3385 89.1562 29.2969C89.0104 29.2135 88.4583 29.1719 87.5 29.1719C86.75 29.1719 86.375 29.2188 86.375 29.3125V31.7344C86.375 32.4115 86.4219 32.8854 86.5156 33.1562C86.5469 33.2604 86.901 33.3125 87.5781 33.3125H88.3281C89.2865 33.3125 89.9427 33.224 90.2969 33.0469C90.4531 32.9635 90.625 32.7812 90.8125 32.5C91.0104 32.2083 91.1667 31.8646 91.2812 31.4688C91.3021 31.4062 91.375 31.375 91.5 31.375C91.6979 31.375 91.8281 31.4062 91.8906 31.4688C91.8594 31.5521 91.8073 31.6823 91.7344 31.8594C91.6719 32.026 91.6094 32.1979 91.5469 32.375C91.4844 32.5521 91.4323 32.7031 91.3906 32.8281C91.3281 33.0156 91.2604 33.2292 91.1875 33.4688C91.1146 33.7083 91.0677 33.9062 91.0469 34.0625ZM96.0781 34.1562C95.8281 34.1562 95.5625 34.1354 95.2812 34.0938C95 34.0625 94.7656 34.026 94.5781 33.9844C94.1927 33.9115 93.9115 33.8542 93.7344 33.8125C93.5677 33.7604 93.4115 33.724 93.2656 33.7031C93.1302 33.0573 93.0312 32.5312 92.9688 32.125C92.9062 31.7083 92.875 31.4062 92.875 31.2188C92.875 31.1562 92.9583 31.125 93.125 31.125C93.3125 31.125 93.4427 31.1719 93.5156 31.2656C93.8802 32.7656 94.7448 33.5156 96.1094 33.5156C96.6302 33.5156 97.0729 33.3594 97.4375 33.0469C97.8021 32.7344 97.9844 32.2917 97.9844 31.7188C97.9844 31.5312 97.9427 31.3021 97.8594 31.0312C97.7865 30.7604 97.6146 30.526 97.3438 30.3281C97.1354 30.1719 96.9635 30.0573 96.8281 29.9844C96.6927 29.901 96.5573 29.8281 96.4219 29.7656C96.2865 29.6927 96.1146 29.5938 95.9062 29.4688L95.2812 29.0938C94.9583 28.8958 94.6354 28.6719 94.3125 28.4219C93.9896 28.1615 93.7188 27.8594 93.5 27.5156C93.2917 27.1719 93.1875 26.7812 93.1875 26.3438C93.1875 25.7917 93.3281 25.3125 93.6094 24.9062C93.901 24.4896 94.276 24.1667 94.7344 23.9375C95.2031 23.7083 95.7083 23.5938 96.25 23.5938C96.4792 23.5938 96.6927 23.6094 96.8906 23.6406C97.099 23.6615 97.2708 23.6875 97.4062 23.7188C97.7188 23.7917 97.9375 23.849 98.0625 23.8906C98.1979 23.9323 98.3802 23.9792 98.6094 24.0312C98.7344 24.5729 98.7969 25.3177 98.7969 26.2656C98.7969 26.3385 98.7448 26.375 98.6406 26.375C98.3802 26.375 98.2448 26.3229 98.2344 26.2188C98.1823 25.9062 98.0677 25.599 97.8906 25.2969C97.7135 24.9948 97.474 24.7448 97.1719 24.5469C96.8698 24.3385 96.5104 24.2344 96.0938 24.2344C95.6667 24.2344 95.3333 24.3177 95.0938 24.4844C94.8542 24.6406 94.6823 24.8438 94.5781 25.0938C94.4844 25.3333 94.4375 25.5885 94.4375 25.8594C94.4375 26.1198 94.5 26.3802 94.625 26.6406C94.75 26.901 94.9323 27.1198 95.1719 27.2969C95.4948 27.5365 95.8177 27.7604 96.1406 27.9688C96.474 28.1771 96.8177 28.3906 97.1719 28.6094C97.5052 28.8177 97.8385 29.0521 98.1719 29.3125C98.5052 29.5625 98.7812 29.849 99 30.1719C99.2292 30.4948 99.3438 30.8698 99.3438 31.2969C99.3438 31.849 99.1927 32.3438 98.8906 32.7812C98.5885 33.2083 98.1875 33.5469 97.6875 33.7969C97.1979 34.0365 96.6615 34.1562 96.0781 34.1562ZM103.297 34.0469C103.255 34.0052 103.234 33.9271 103.234 33.8125C103.234 33.6667 103.255 33.5938 103.297 33.5938C103.391 33.5938 103.516 33.5833 103.672 33.5625C103.828 33.5312 103.974 33.4896 104.109 33.4375C104.245 33.3854 104.323 33.3333 104.344 33.2812C104.385 33.1354 104.411 32.9479 104.422 32.7188C104.443 32.4896 104.453 32.2135 104.453 31.8906V26.2344C104.453 25.3281 104.406 24.7917 104.312 24.625C104.24 24.4688 103.677 24.3906 102.625 24.3906C102.229 24.3906 101.922 24.4271 101.703 24.5C101.484 24.5625 101.318 24.6927 101.203 24.8906C101.089 25.0885 100.979 25.3854 100.875 25.7812C100.854 25.8333 100.802 25.8594 100.719 25.8594C100.542 25.8594 100.417 25.8229 100.344 25.75L100.641 23.5156C100.87 23.5677 101.073 23.6094 101.25 23.6406C101.427 23.6719 101.583 23.6875 101.719 23.6875C102.469 23.6875 103.13 23.6979 103.703 23.7188C104.276 23.7396 104.755 23.75 105.141 23.75C105.943 23.75 106.63 23.7396 107.203 23.7188C107.786 23.6979 108.245 23.6875 108.578 23.6875C108.714 23.6875 108.87 23.6719 109.047 23.6406C109.224 23.6094 109.427 23.5677 109.656 23.5156L109.953 25.75C109.88 25.8229 109.755 25.8594 109.578 25.8594C109.495 25.8594 109.443 25.8333 109.422 25.7812C109.328 25.3854 109.219 25.0885 109.094 24.8906C108.979 24.6927 108.812 24.5625 108.594 24.5C108.375 24.4271 108.068 24.3906 107.672 24.3906C106.578 24.3906 106.005 24.4688 105.953 24.625C105.859 24.9479 105.812 25.4688 105.812 26.1875V31.8281C105.812 32.4323 105.859 32.9167 105.953 33.2812C105.974 33.3229 106.052 33.3698 106.188 33.4219C106.323 33.474 106.469 33.5156 106.625 33.5469C106.781 33.5781 106.891 33.5938 106.953 33.5938C106.995 33.5938 107.016 33.6719 107.016 33.8281C107.016 33.8906 107.005 33.9635 106.984 34.0469C106.464 34.026 106.052 34.0104 105.75 34C105.448 33.9792 105.255 33.9688 105.172 33.9688L103.297 34.0469ZM109.484 34.0469C109.443 34.0052 109.422 33.9271 109.422 33.8125C109.422 33.6667 109.443 33.5938 109.484 33.5938C109.609 33.5938 109.771 33.5677 109.969 33.5156C110.167 33.4635 110.302 33.3906 110.375 33.2969C110.49 33.151 110.604 32.9583 110.719 32.7188C110.844 32.4792 110.974 32.1823 111.109 31.8281L113.828 24.8438C113.891 24.6875 113.927 24.5781 113.938 24.5156C113.958 24.4531 113.974 24.401 113.984 24.3594C114.005 24.3073 114.042 24.224 114.094 24.1094C114.167 23.9635 114.24 23.849 114.312 23.7656C114.385 23.6823 114.505 23.6406 114.672 23.6406L114.812 23.6875L117.938 31.9375C118.031 32.1771 118.115 32.3906 118.188 32.5781C118.271 32.7656 118.339 32.9271 118.391 33.0625C118.432 33.1667 118.521 33.2604 118.656 33.3438C118.802 33.4167 118.948 33.4792 119.094 33.5312C119.25 33.5729 119.37 33.5938 119.453 33.5938C119.495 33.5938 119.516 33.6927 119.516 33.8906C119.516 33.9115 119.51 33.9375 119.5 33.9688C119.5 33.9896 119.495 34.0156 119.484 34.0469C118.964 34.026 118.557 34.0104 118.266 34C117.984 33.9792 117.818 33.9688 117.766 33.9688L115.953 34.0469C115.911 34.0052 115.891 33.9219 115.891 33.7969C115.901 33.6615 115.927 33.5938 115.969 33.5938C116.094 33.5938 116.25 33.5677 116.438 33.5156C116.625 33.4635 116.734 33.3958 116.766 33.3125C116.776 33.2708 116.781 33.2292 116.781 33.1875C116.792 33.1458 116.797 33.1042 116.797 33.0625C116.797 32.9271 116.781 32.7708 116.75 32.5938C116.719 32.4062 116.682 32.2604 116.641 32.1562L115.938 30.2188C115.906 30.1771 115.875 30.1562 115.844 30.1562C115.438 30.125 115.042 30.1094 114.656 30.1094C114.385 30.1094 114.083 30.1198 113.75 30.1406C113.427 30.151 113.068 30.1667 112.672 30.1875L112.594 30.2344L111.922 31.9531C111.818 32.2135 111.745 32.4323 111.703 32.6094C111.672 32.7865 111.656 32.9271 111.656 33.0312C111.656 33.1771 111.698 33.2812 111.781 33.3438C111.875 33.4167 112.026 33.4792 112.234 33.5312C112.443 33.5729 112.594 33.5938 112.688 33.5938C112.719 33.5938 112.734 33.6562 112.734 33.7812C112.745 33.9062 112.74 33.9948 112.719 34.0469L111.109 33.9688C110.818 33.9479 110.531 33.9531 110.25 33.9844C109.979 34.0052 109.724 34.026 109.484 34.0469ZM114.109 29.3594C114.578 29.3594 115.052 29.3438 115.531 29.3125L115.578 29.2344L114.312 25.7812L112.969 29.2656C112.969 29.3073 112.979 29.3281 113 29.3281C113.271 29.3385 113.495 29.349 113.672 29.3594C113.859 29.3594 114.005 29.3594 114.109 29.3594ZM124.609 34C123.37 34 122.417 33.6354 121.75 32.9062C121.083 32.1771 120.75 31 120.75 29.375V25.8281C120.75 25.5052 120.74 25.2292 120.719 25C120.708 24.7604 120.682 24.5729 120.641 24.4375C120.62 24.375 120.542 24.3229 120.406 24.2812C120.271 24.2292 120.125 24.1875 119.969 24.1562C119.812 24.125 119.688 24.1094 119.594 24.1094C119.552 24.1094 119.531 24.0417 119.531 23.9062C119.531 23.7812 119.552 23.6979 119.594 23.6562L121.469 23.7344C121.552 23.7344 121.745 23.7292 122.047 23.7188C122.349 23.6979 122.76 23.6771 123.281 23.6562C123.302 23.7396 123.312 23.8125 123.312 23.875C123.312 24.0312 123.292 24.1094 123.25 24.1094C123.188 24.1094 123.078 24.1302 122.922 24.1719C122.766 24.2031 122.62 24.2448 122.484 24.2969C122.349 24.3385 122.271 24.3854 122.25 24.4375C122.156 24.7917 122.109 25.276 122.109 25.8906V29.375C122.109 30.5521 122.359 31.4896 122.859 32.1875C123.359 32.8854 124.068 33.2344 124.984 33.2344C126.766 33.2344 127.656 32.0625 127.656 29.7188V25.8125C127.656 25.1562 127.62 24.6979 127.547 24.4375C127.526 24.375 127.432 24.3177 127.266 24.2656C127.099 24.2135 126.922 24.1719 126.734 24.1406C126.547 24.099 126.406 24.0781 126.312 24.0781C126.271 24.0781 126.25 24.0156 126.25 23.8906C126.25 23.776 126.271 23.6979 126.312 23.6562C126.406 23.6562 126.562 23.6667 126.781 23.6875C127 23.6979 127.234 23.7135 127.484 23.7344C127.745 23.7448 127.969 23.75 128.156 23.75C128.427 23.75 128.771 23.7344 129.188 23.7031C129.594 23.6719 129.833 23.6562 129.906 23.6562C129.927 23.7396 129.938 23.8177 129.938 23.8906C129.938 24.0156 129.917 24.0781 129.875 24.0781C129.812 24.0781 129.682 24.099 129.484 24.1406C129.286 24.1823 129.099 24.2292 128.922 24.2812C128.755 24.3333 128.661 24.3854 128.641 24.4375C128.599 24.6042 128.568 24.8073 128.547 25.0469C128.526 25.2865 128.516 25.5677 128.516 25.8906V29.6875C128.516 30.7604 128.365 31.6146 128.062 32.25C127.76 32.875 127.318 33.3229 126.734 33.5938C126.151 33.8646 125.443 34 124.609 34ZM140.25 34.0781C138.802 34.0781 137.536 33.3281 136.453 31.8281C136.37 31.7135 136.26 31.5573 136.125 31.3594C136 31.1615 135.766 30.8125 135.422 30.3125C135.255 30.0729 135.104 29.875 134.969 29.7188C134.844 29.5521 134.693 29.4271 134.516 29.3438C134.349 29.2604 134.12 29.2188 133.828 29.2188C133.714 29.2188 133.62 29.2344 133.547 29.2656C133.484 29.2969 133.453 29.3698 133.453 29.4844V31.7812C133.453 32.4688 133.495 32.9219 133.578 33.1406C133.62 33.224 133.719 33.3021 133.875 33.375C134.042 33.4479 134.219 33.5052 134.406 33.5469C134.594 33.5781 134.729 33.5938 134.812 33.5938C134.854 33.5938 134.875 33.6667 134.875 33.8125C134.875 33.8854 134.865 33.9635 134.844 34.0469C134.323 34.026 133.891 34.0052 133.547 33.9844C133.214 33.9635 132.969 33.9583 132.812 33.9688L130.906 34.0469C130.875 34.0156 130.859 33.9219 130.859 33.7656C130.859 33.6302 130.875 33.5625 130.906 33.5625C131.01 33.5625 131.135 33.5469 131.281 33.5156C131.438 33.4844 131.583 33.4479 131.719 33.4062C131.865 33.3542 131.953 33.2969 131.984 33.2344C132.057 33.1198 132.094 32.6302 132.094 31.7656V25.8594C132.094 25.5573 132.083 25.2917 132.062 25.0625C132.052 24.8333 132.026 24.651 131.984 24.5156C131.964 24.4531 131.88 24.3958 131.734 24.3438C131.599 24.2917 131.448 24.25 131.281 24.2188C131.125 24.1875 131 24.1719 130.906 24.1719C130.865 24.1719 130.844 24.1094 130.844 23.9844C130.844 23.849 130.865 23.7604 130.906 23.7188L132.781 23.75C133.083 23.7604 133.453 23.7552 133.891 23.7344C134.328 23.7031 134.693 23.6875 134.984 23.6875C135.547 23.6875 136.083 23.7969 136.594 24.0156C137.115 24.2344 137.536 24.5573 137.859 24.9844C138.193 25.4115 138.359 25.9323 138.359 26.5469C138.359 26.9844 138.193 27.4427 137.859 27.9219C137.536 28.401 137.094 28.7708 136.531 29.0312C136.427 29.0729 136.396 29.125 136.438 29.1875C136.948 30.2708 137.547 31.1875 138.234 31.9375C139.234 33.0312 140.047 33.5781 140.672 33.5781C140.703 33.6406 140.719 33.7135 140.719 33.7969C140.719 33.8906 140.703 33.9688 140.672 34.0312C140.568 34.0625 140.427 34.0781 140.25 34.0781ZM134.812 28.5469H135.203C135.453 28.5469 135.708 28.4635 135.969 28.2969C136.24 28.1302 136.464 27.8958 136.641 27.5938C136.828 27.2917 136.922 26.9427 136.922 26.5469C136.922 25.099 136.193 24.375 134.734 24.375C134.255 24.375 133.891 24.4115 133.641 24.4844C133.547 24.5052 133.49 24.6771 133.469 25C133.458 25.3125 133.453 25.7135 133.453 26.2031V28.0938C133.453 28.3958 133.906 28.5469 134.812 28.5469ZM140.938 34.0469C140.896 34.0052 140.875 33.9271 140.875 33.8125C140.875 33.6667 140.896 33.5938 140.938 33.5938C141.062 33.5938 141.224 33.5677 141.422 33.5156C141.62 33.4635 141.755 33.3906 141.828 33.2969C141.943 33.151 142.057 32.9583 142.172 32.7188C142.297 32.4792 142.427 32.1823 142.562 31.8281L145.281 24.8438C145.344 24.6875 145.38 24.5781 145.391 24.5156C145.411 24.4531 145.427 24.401 145.438 24.3594C145.458 24.3073 145.495 24.224 145.547 24.1094C145.62 23.9635 145.693 23.849 145.766 23.7656C145.839 23.6823 145.958 23.6406 146.125 23.6406L146.266 23.6875L149.391 31.9375C149.484 32.1771 149.568 32.3906 149.641 32.5781C149.724 32.7656 149.792 32.9271 149.844 33.0625C149.885 33.1667 149.974 33.2604 150.109 33.3438C150.255 33.4167 150.401 33.4792 150.547 33.5312C150.703 33.5729 150.823 33.5938 150.906 33.5938C150.948 33.5938 150.969 33.6927 150.969 33.8906C150.969 33.9115 150.964 33.9375 150.953 33.9688C150.953 33.9896 150.948 34.0156 150.938 34.0469C150.417 34.026 150.01 34.0104 149.719 34C149.438 33.9792 149.271 33.9688 149.219 33.9688L147.406 34.0469C147.365 34.0052 147.344 33.9219 147.344 33.7969C147.354 33.6615 147.38 33.5938 147.422 33.5938C147.547 33.5938 147.703 33.5677 147.891 33.5156C148.078 33.4635 148.188 33.3958 148.219 33.3125C148.229 33.2708 148.234 33.2292 148.234 33.1875C148.245 33.1458 148.25 33.1042 148.25 33.0625C148.25 32.9271 148.234 32.7708 148.203 32.5938C148.172 32.4062 148.135 32.2604 148.094 32.1562L147.391 30.2188C147.359 30.1771 147.328 30.1562 147.297 30.1562C146.891 30.125 146.495 30.1094 146.109 30.1094C145.839 30.1094 145.536 30.1198 145.203 30.1406C144.88 30.151 144.521 30.1667 144.125 30.1875L144.047 30.2344L143.375 31.9531C143.271 32.2135 143.198 32.4323 143.156 32.6094C143.125 32.7865 143.109 32.9271 143.109 33.0312C143.109 33.1771 143.151 33.2812 143.234 33.3438C143.328 33.4167 143.479 33.4792 143.688 33.5312C143.896 33.5729 144.047 33.5938 144.141 33.5938C144.172 33.5938 144.188 33.6562 144.188 33.7812C144.198 33.9062 144.193 33.9948 144.172 34.0469L142.562 33.9688C142.271 33.9479 141.984 33.9531 141.703 33.9844C141.432 34.0052 141.177 34.026 140.938 34.0469ZM145.562 29.3594C146.031 29.3594 146.505 29.3438 146.984 29.3125L147.031 29.2344L145.766 25.7812L144.422 29.2656C144.422 29.3073 144.432 29.3281 144.453 29.3281C144.724 29.3385 144.948 29.349 145.125 29.3594C145.312 29.3594 145.458 29.3594 145.562 29.3594ZM160.469 34.0781C160.302 34.0781 160.13 33.9583 159.953 33.7188L153.891 25.125V31.7969C153.891 32.5052 153.927 32.9896 154 33.25C154.021 33.2917 154.109 33.3438 154.266 33.4062C154.432 33.4583 154.609 33.5052 154.797 33.5469C154.984 33.5781 155.109 33.5938 155.172 33.5938C155.203 33.5938 155.219 33.6562 155.219 33.7812C155.229 33.9062 155.224 33.9948 155.203 34.0469C154.682 34.026 154.271 34.0104 153.969 34C153.677 33.9792 153.49 33.9688 153.406 33.9688L151.609 34.0469C151.578 34.0156 151.562 33.9375 151.562 33.8125C151.562 33.6667 151.578 33.5938 151.609 33.5938C151.714 33.5938 151.859 33.5781 152.047 33.5469C152.234 33.5052 152.411 33.4583 152.578 33.4062C152.745 33.3438 152.839 33.2812 152.859 33.2188C152.964 32.9688 153.016 32.4792 153.016 31.75V25.6094C153.016 25.0781 152.979 24.6875 152.906 24.4375C152.885 24.375 152.792 24.3229 152.625 24.2812C152.469 24.2292 152.297 24.1875 152.109 24.1562C151.922 24.125 151.776 24.1094 151.672 24.1094C151.63 24.1094 151.609 24.0417 151.609 23.9062C151.609 23.7812 151.63 23.6979 151.672 23.6562C152.078 23.6667 152.411 23.6771 152.672 23.6875C152.943 23.6875 153.141 23.6875 153.266 23.6875C153.536 23.6875 153.776 23.6875 153.984 23.6875C154.193 23.6771 154.37 23.6667 154.516 23.6562C154.714 24.0104 155.25 24.8281 156.125 26.1094C157.01 27.3802 158.24 29.1146 159.812 31.3125C159.844 31.1354 159.859 30.9219 159.859 30.6719V25.8125C159.859 25.1562 159.823 24.6979 159.75 24.4375C159.729 24.375 159.635 24.3177 159.469 24.2656C159.302 24.2135 159.125 24.1719 158.938 24.1406C158.75 24.099 158.609 24.0781 158.516 24.0781C158.474 24.0781 158.453 24.0156 158.453 23.8906C158.453 23.776 158.474 23.6979 158.516 23.6562C158.609 23.6562 158.766 23.6667 158.984 23.6875C159.203 23.6979 159.438 23.7135 159.688 23.7344C159.948 23.7448 160.172 23.75 160.359 23.75C160.63 23.75 160.974 23.7344 161.391 23.7031C161.797 23.6719 162.036 23.6562 162.109 23.6562C162.13 23.7396 162.141 23.8177 162.141 23.8906C162.141 24.0156 162.12 24.0781 162.078 24.0781C162.016 24.0781 161.885 24.099 161.688 24.1406C161.49 24.1823 161.302 24.2292 161.125 24.2812C160.958 24.3333 160.865 24.3854 160.844 24.4375C160.802 24.6042 160.771 24.8073 160.75 25.0469C160.729 25.2865 160.719 25.5677 160.719 25.8906V31.8281C160.719 32.474 160.734 33.2031 160.766 34.0156C160.724 34.0573 160.625 34.0781 160.469 34.0781ZM165.906 34.0469C165.865 34.0052 165.844 33.9271 165.844 33.8125C165.844 33.6667 165.865 33.5938 165.906 33.5938C166 33.5938 166.125 33.5833 166.281 33.5625C166.438 33.5312 166.583 33.4896 166.719 33.4375C166.854 33.3854 166.932 33.3333 166.953 33.2812C166.995 33.1354 167.021 32.9479 167.031 32.7188C167.052 32.4896 167.062 32.2135 167.062 31.8906V26.2344C167.062 25.3281 167.016 24.7917 166.922 24.625C166.849 24.4688 166.286 24.3906 165.234 24.3906C164.839 24.3906 164.531 24.4271 164.312 24.5C164.094 24.5625 163.927 24.6927 163.812 24.8906C163.698 25.0885 163.589 25.3854 163.484 25.7812C163.464 25.8333 163.411 25.8594 163.328 25.8594C163.151 25.8594 163.026 25.8229 162.953 25.75L163.25 23.5156C163.479 23.5677 163.682 23.6094 163.859 23.6406C164.036 23.6719 164.193 23.6875 164.328 23.6875C165.078 23.6875 165.74 23.6979 166.312 23.7188C166.885 23.7396 167.365 23.75 167.75 23.75C168.552 23.75 169.24 23.7396 169.812 23.7188C170.396 23.6979 170.854 23.6875 171.188 23.6875C171.323 23.6875 171.479 23.6719 171.656 23.6406C171.833 23.6094 172.036 23.5677 172.266 23.5156L172.562 25.75C172.49 25.8229 172.365 25.8594 172.188 25.8594C172.104 25.8594 172.052 25.8333 172.031 25.7812C171.938 25.3854 171.828 25.0885 171.703 24.8906C171.589 24.6927 171.422 24.5625 171.203 24.5C170.984 24.4271 170.677 24.3906 170.281 24.3906C169.188 24.3906 168.615 24.4688 168.562 24.625C168.469 24.9479 168.422 25.4688 168.422 26.1875V31.8281C168.422 32.4323 168.469 32.9167 168.562 33.2812C168.583 33.3229 168.661 33.3698 168.797 33.4219C168.932 33.474 169.078 33.5156 169.234 33.5469C169.391 33.5781 169.5 33.5938 169.562 33.5938C169.604 33.5938 169.625 33.6719 169.625 33.8281C169.625 33.8906 169.615 33.9635 169.594 34.0469C169.073 34.026 168.661 34.0104 168.359 34C168.057 33.9792 167.865 33.9688 167.781 33.9688L165.906 34.0469Z" fill="white"/>
<path d="M43.0859 62.2109C42.9766 62.2109 42.8984 62.1641 42.8516 62.0703L38.0469 49.9531C37.6562 48.9219 37.3047 48.1719 36.9922 47.7031C36.8828 47.5312 36.6562 47.3984 36.3125 47.3047C35.9688 47.2109 35.6953 47.1641 35.4922 47.1641C35.4297 47.1641 35.3984 47.0625 35.3984 46.8594C35.3984 46.6719 35.4297 46.5469 35.4922 46.4844C35.8672 46.5 36.2891 46.5234 36.7578 46.5547C37.2266 46.5859 37.7031 46.6016 38.1875 46.6016C38.375 46.6016 38.7109 46.5938 39.1953 46.5781C39.6797 46.5469 40.3125 46.5156 41.0938 46.4844C41.125 46.5469 41.1328 46.6797 41.1172 46.8828C41.1172 47.0703 41.0938 47.1641 41.0469 47.1641C40.75 47.1641 40.4453 47.2266 40.1328 47.3516C39.8203 47.4766 39.6641 47.6719 39.6641 47.9375C39.6641 48.3906 40.6484 51.0234 42.6172 55.8359C42.8359 56.3672 43.0234 56.8438 43.1797 57.2656C43.3516 57.6719 43.5 58.0234 43.625 58.3203C43.6719 58.3984 43.7344 58.4219 43.8125 58.3906C43.9062 58.3438 43.9688 58.2812 44 58.2031L47.5156 49.7188C47.8125 48.9688 47.9609 48.4219 47.9609 48.0781C47.9609 47.8438 47.8594 47.6641 47.6562 47.5391C47.4531 47.3984 47.2188 47.3047 46.9531 47.2578C46.7031 47.1953 46.4922 47.1641 46.3203 47.1641C46.2578 47.1641 46.2266 47.0625 46.2266 46.8594C46.2266 46.6719 46.2578 46.5469 46.3203 46.4844C47.0547 46.5156 47.625 46.5469 48.0312 46.5781C48.4531 46.5938 48.7188 46.6016 48.8281 46.6016L51.1953 46.4844C51.2266 46.6094 51.2422 46.7266 51.2422 46.8359C51.2422 47.0547 51.2109 47.1641 51.1484 47.1641C50.4453 47.1641 49.9766 47.3828 49.7422 47.8203C49.5703 48.1484 49.3828 48.5156 49.1797 48.9219C48.9922 49.3125 48.7969 49.75 48.5938 50.2344L43.9062 61.4375C43.7031 61.9531 43.4297 62.2109 43.0859 62.2109ZM66.6172 62.1172C64.4453 62.1172 62.5469 60.9922 60.9219 58.7422C60.7969 58.5703 60.6328 58.3359 60.4297 58.0391C60.2422 57.7422 59.8906 57.2188 59.375 56.4688C59.125 56.1094 58.8984 55.8125 58.6953 55.5781C58.5078 55.3281 58.2812 55.1406 58.0156 55.0156C57.7656 54.8906 57.4219 54.8281 56.9844 54.8281C56.8125 54.8281 56.6719 54.8516 56.5625 54.8984C56.4688 54.9453 56.4219 55.0547 56.4219 55.2266V58.6719C56.4219 59.7031 56.4844 60.3828 56.6094 60.7109C56.6719 60.8359 56.8203 60.9531 57.0547 61.0625C57.3047 61.1719 57.5703 61.2578 57.8516 61.3203C58.1328 61.3672 58.3359 61.3906 58.4609 61.3906C58.5234 61.3906 58.5547 61.5 58.5547 61.7188C58.5547 61.8281 58.5391 61.9453 58.5078 62.0703C57.7266 62.0391 57.0781 62.0078 56.5625 61.9766C56.0625 61.9453 55.6953 61.9375 55.4609 61.9531L52.6016 62.0703C52.5547 62.0234 52.5312 61.8828 52.5312 61.6484C52.5312 61.4453 52.5547 61.3438 52.6016 61.3438C52.7578 61.3438 52.9453 61.3203 53.1641 61.2734C53.3984 61.2266 53.6172 61.1719 53.8203 61.1094C54.0391 61.0312 54.1719 60.9453 54.2188 60.8516C54.3281 60.6797 54.3828 59.9453 54.3828 58.6484V49.7891C54.3828 49.3359 54.3672 48.9375 54.3359 48.5938C54.3203 48.25 54.2812 47.9766 54.2188 47.7734C54.1875 47.6797 54.0625 47.5938 53.8438 47.5156C53.6406 47.4375 53.4141 47.375 53.1641 47.3281C52.9297 47.2812 52.7422 47.2578 52.6016 47.2578C52.5391 47.2578 52.5078 47.1641 52.5078 46.9766C52.5078 46.7734 52.5391 46.6406 52.6016 46.5781L55.4141 46.625C55.8672 46.6406 56.4219 46.6328 57.0781 46.6016C57.7344 46.5547 58.2812 46.5312 58.7188 46.5312C59.5625 46.5312 60.3672 46.6953 61.1328 47.0234C61.9141 47.3516 62.5469 47.8359 63.0312 48.4766C63.5312 49.1172 63.7812 49.8984 63.7812 50.8203C63.7812 51.4766 63.5312 52.1641 63.0312 52.8828C62.5469 53.6016 61.8828 54.1562 61.0391 54.5469C60.8828 54.6094 60.8359 54.6875 60.8984 54.7812C61.6641 56.4062 62.5625 57.7812 63.5938 58.9062C65.0938 60.5469 66.3125 61.3672 67.25 61.3672C67.2969 61.4609 67.3203 61.5703 67.3203 61.6953C67.3203 61.8359 67.2969 61.9531 67.25 62.0469C67.0938 62.0938 66.8828 62.1172 66.6172 62.1172ZM58.4609 53.8203H59.0469C59.4219 53.8203 59.8047 53.6953 60.1953 53.4453C60.6016 53.1953 60.9375 52.8438 61.2031 52.3906C61.4844 51.9375 61.625 51.4141 61.625 50.8203C61.625 48.6484 60.5312 47.5625 58.3438 47.5625C57.625 47.5625 57.0781 47.6172 56.7031 47.7266C56.5625 47.7578 56.4766 48.0156 56.4453 48.5C56.4297 48.9688 56.4219 49.5703 56.4219 50.3047V53.1406C56.4219 53.5938 57.1016 53.8203 58.4609 53.8203ZM67.6484 62.0703C67.5859 62.0078 67.5547 61.8906 67.5547 61.7188C67.5547 61.5 67.5859 61.3906 67.6484 61.3906C67.8359 61.3906 68.0781 61.3516 68.375 61.2734C68.6719 61.1953 68.875 61.0859 68.9844 60.9453C69.1562 60.7266 69.3281 60.4375 69.5 60.0781C69.6875 59.7188 69.8828 59.2734 70.0859 58.7422L74.1641 48.2656C74.2578 48.0312 74.3125 47.8672 74.3281 47.7734C74.3594 47.6797 74.3828 47.6016 74.3984 47.5391C74.4297 47.4609 74.4844 47.3359 74.5625 47.1641C74.6719 46.9453 74.7812 46.7734 74.8906 46.6484C75 46.5234 75.1797 46.4609 75.4297 46.4609L75.6406 46.5312L80.3281 58.9062C80.4688 59.2656 80.5938 59.5859 80.7031 59.8672C80.8281 60.1484 80.9297 60.3906 81.0078 60.5938C81.0703 60.75 81.2031 60.8906 81.4062 61.0156C81.625 61.125 81.8438 61.2188 82.0625 61.2969C82.2969 61.3594 82.4766 61.3906 82.6016 61.3906C82.6641 61.3906 82.6953 61.5391 82.6953 61.8359C82.6953 61.8672 82.6875 61.9062 82.6719 61.9531C82.6719 61.9844 82.6641 62.0234 82.6484 62.0703C81.8672 62.0391 81.2578 62.0156 80.8203 62C80.3984 61.9688 80.1484 61.9531 80.0703 61.9531L77.3516 62.0703C77.2891 62.0078 77.2578 61.8828 77.2578 61.6953C77.2734 61.4922 77.3125 61.3906 77.375 61.3906C77.5625 61.3906 77.7969 61.3516 78.0781 61.2734C78.3594 61.1953 78.5234 61.0938 78.5703 60.9688C78.5859 60.9062 78.5938 60.8438 78.5938 60.7812C78.6094 60.7188 78.6172 60.6562 78.6172 60.5938C78.6172 60.3906 78.5938 60.1562 78.5469 59.8906C78.5 59.6094 78.4453 59.3906 78.3828 59.2344L77.3281 56.3281C77.2812 56.2656 77.2344 56.2344 77.1875 56.2344C76.5781 56.1875 75.9844 56.1641 75.4062 56.1641C75 56.1641 74.5469 56.1797 74.0469 56.2109C73.5625 56.2266 73.0234 56.25 72.4297 56.2812L72.3125 56.3516L71.3047 58.9297C71.1484 59.3203 71.0391 59.6484 70.9766 59.9141C70.9297 60.1797 70.9062 60.3906 70.9062 60.5469C70.9062 60.7656 70.9688 60.9219 71.0938 61.0156C71.2344 61.125 71.4609 61.2188 71.7734 61.2969C72.0859 61.3594 72.3125 61.3906 72.4531 61.3906C72.5 61.3906 72.5234 61.4844 72.5234 61.6719C72.5391 61.8594 72.5312 61.9922 72.5 62.0703L70.0859 61.9531C69.6484 61.9219 69.2188 61.9297 68.7969 61.9766C68.3906 62.0078 68.0078 62.0391 67.6484 62.0703ZM74.5859 55.0391C75.2891 55.0391 76 55.0156 76.7188 54.9688L76.7891 54.8516L74.8906 49.6719L72.875 54.8984C72.875 54.9609 72.8906 54.9922 72.9219 54.9922C73.3281 55.0078 73.6641 55.0234 73.9297 55.0391C74.2109 55.0391 74.4297 55.0391 74.5859 55.0391ZM84.0078 62.0703C83.9609 62.0234 83.9375 61.9062 83.9375 61.7188C83.9375 61.5 83.9609 61.3906 84.0078 61.3906C84.1484 61.3906 84.3359 61.3672 84.5703 61.3203C84.8047 61.2578 85.0234 61.1875 85.2266 61.1094C85.4453 61.0312 85.5781 60.9453 85.625 60.8516C85.7344 60.6797 85.7891 59.9453 85.7891 58.6484V49.7891C85.7891 49.3359 85.7734 48.9375 85.7422 48.5938C85.7266 48.25 85.6875 47.9766 85.625 47.7734C85.5938 47.6797 85.4688 47.5938 85.25 47.5156C85.0469 47.4375 84.8203 47.375 84.5703 47.3281C84.3359 47.2812 84.1484 47.2578 84.0078 47.2578C83.9453 47.2578 83.9141 47.1641 83.9141 46.9766C83.9141 46.7734 83.9453 46.6406 84.0078 46.5781C84.4141 46.5938 84.8438 46.6094 85.2969 46.625C85.7656 46.625 86.2656 46.625 86.7969 46.625L89.0703 46.6016C89.5234 46.6016 89.8984 46.6016 90.1953 46.6016C90.4922 46.5859 90.7188 46.5781 90.875 46.5781C92.5781 46.5781 94.0312 46.9297 95.2344 47.6328C96.4375 48.3203 97.3594 49.2344 98 50.375C98.6406 51.5156 98.9609 52.7656 98.9609 54.125C98.9609 55.625 98.6328 56.9844 97.9766 58.2031C97.3359 59.4219 96.4062 60.3828 95.1875 61.0859C93.9844 61.7891 92.5391 62.1172 90.8516 62.0703L89.1875 62.0234C88.7188 62.0078 88.2891 62 87.8984 62C87.5078 61.9844 87.1562 61.9844 86.8438 62L84.0078 62.0703ZM91.2266 60.9922C94.8203 60.9922 96.6172 58.6719 96.6172 54.0312C96.6172 52.8438 96.4062 51.7656 95.9844 50.7969C95.5625 49.8281 94.9375 49.0547 94.1094 48.4766C93.2969 47.8984 92.2812 47.6094 91.0625 47.6094H90.9453C89.2578 47.6094 88.3203 47.7344 88.1328 47.9844C87.9297 48.25 87.8281 48.7422 87.8281 49.4609V58.7422C87.8281 59.3828 87.9453 59.9766 88.1797 60.5234C88.2109 60.6016 88.3438 60.6719 88.5781 60.7344C88.8125 60.7812 89.0938 60.8281 89.4219 60.875C89.7656 60.9062 90.1016 60.9375 90.4297 60.9688C90.7578 60.9844 91.0234 60.9922 91.2266 60.9922ZM105.805 62.2344C105.43 62.2344 105.031 62.2031 104.609 62.1406C104.188 62.0938 103.836 62.0391 103.555 61.9766C102.977 61.8672 102.555 61.7812 102.289 61.7188C102.039 61.6406 101.805 61.5859 101.586 61.5547C101.383 60.5859 101.234 59.7969 101.141 59.1875C101.047 58.5625 101 58.1094 101 57.8281C101 57.7344 101.125 57.6875 101.375 57.6875C101.656 57.6875 101.852 57.7578 101.961 57.8984C102.508 60.1484 103.805 61.2734 105.852 61.2734C106.633 61.2734 107.297 61.0391 107.844 60.5703C108.391 60.1016 108.664 59.4375 108.664 58.5781C108.664 58.2969 108.602 57.9531 108.477 57.5469C108.367 57.1406 108.109 56.7891 107.703 56.4922C107.391 56.2578 107.133 56.0859 106.93 55.9766C106.727 55.8516 106.523 55.7422 106.32 55.6484C106.117 55.5391 105.859 55.3906 105.547 55.2031L104.609 54.6406C104.125 54.3438 103.641 54.0078 103.156 53.6328C102.672 53.2422 102.266 52.7891 101.938 52.2734C101.625 51.7578 101.469 51.1719 101.469 50.5156C101.469 49.6875 101.68 48.9688 102.102 48.3594C102.539 47.7344 103.102 47.25 103.789 46.9062C104.492 46.5625 105.25 46.3906 106.062 46.3906C106.406 46.3906 106.727 46.4141 107.023 46.4609C107.336 46.4922 107.594 46.5312 107.797 46.5781C108.266 46.6875 108.594 46.7734 108.781 46.8359C108.984 46.8984 109.258 46.9688 109.602 47.0469C109.789 47.8594 109.883 48.9766 109.883 50.3984C109.883 50.5078 109.805 50.5625 109.648 50.5625C109.258 50.5625 109.055 50.4844 109.039 50.3281C108.961 49.8594 108.789 49.3984 108.523 48.9453C108.258 48.4922 107.898 48.1172 107.445 47.8203C106.992 47.5078 106.453 47.3516 105.828 47.3516C105.188 47.3516 104.688 47.4766 104.328 47.7266C103.969 47.9609 103.711 48.2656 103.555 48.6406C103.414 49 103.344 49.3828 103.344 49.7891C103.344 50.1797 103.438 50.5703 103.625 50.9609C103.812 51.3516 104.086 51.6797 104.445 51.9453C104.93 52.3047 105.414 52.6406 105.898 52.9531C106.398 53.2656 106.914 53.5859 107.445 53.9141C107.945 54.2266 108.445 54.5781 108.945 54.9688C109.445 55.3438 109.859 55.7734 110.188 56.2578C110.531 56.7422 110.703 57.3047 110.703 57.9453C110.703 58.7734 110.477 59.5156 110.023 60.1719C109.57 60.8125 108.969 61.3203 108.219 61.6953C107.484 62.0547 106.68 62.2344 105.805 62.2344ZM122.68 62.2344C122.305 62.2344 121.906 62.2031 121.484 62.1406C121.062 62.0938 120.711 62.0391 120.43 61.9766C119.852 61.8672 119.43 61.7812 119.164 61.7188C118.914 61.6406 118.68 61.5859 118.461 61.5547C118.258 60.5859 118.109 59.7969 118.016 59.1875C117.922 58.5625 117.875 58.1094 117.875 57.8281C117.875 57.7344 118 57.6875 118.25 57.6875C118.531 57.6875 118.727 57.7578 118.836 57.8984C119.383 60.1484 120.68 61.2734 122.727 61.2734C123.508 61.2734 124.172 61.0391 124.719 60.5703C125.266 60.1016 125.539 59.4375 125.539 58.5781C125.539 58.2969 125.477 57.9531 125.352 57.5469C125.242 57.1406 124.984 56.7891 124.578 56.4922C124.266 56.2578 124.008 56.0859 123.805 55.9766C123.602 55.8516 123.398 55.7422 123.195 55.6484C122.992 55.5391 122.734 55.3906 122.422 55.2031L121.484 54.6406C121 54.3438 120.516 54.0078 120.031 53.6328C119.547 53.2422 119.141 52.7891 118.812 52.2734C118.5 51.7578 118.344 51.1719 118.344 50.5156C118.344 49.6875 118.555 48.9688 118.977 48.3594C119.414 47.7344 119.977 47.25 120.664 46.9062C121.367 46.5625 122.125 46.3906 122.938 46.3906C123.281 46.3906 123.602 46.4141 123.898 46.4609C124.211 46.4922 124.469 46.5312 124.672 46.5781C125.141 46.6875 125.469 46.7734 125.656 46.8359C125.859 46.8984 126.133 46.9688 126.477 47.0469C126.664 47.8594 126.758 48.9766 126.758 50.3984C126.758 50.5078 126.68 50.5625 126.523 50.5625C126.133 50.5625 125.93 50.4844 125.914 50.3281C125.836 49.8594 125.664 49.3984 125.398 48.9453C125.133 48.4922 124.773 48.1172 124.32 47.8203C123.867 47.5078 123.328 47.3516 122.703 47.3516C122.062 47.3516 121.562 47.4766 121.203 47.7266C120.844 47.9609 120.586 48.2656 120.43 48.6406C120.289 49 120.219 49.3828 120.219 49.7891C120.219 50.1797 120.312 50.5703 120.5 50.9609C120.688 51.3516 120.961 51.6797 121.32 51.9453C121.805 52.3047 122.289 52.6406 122.773 52.9531C123.273 53.2656 123.789 53.5859 124.32 53.9141C124.82 54.2266 125.32 54.5781 125.82 54.9688C126.32 55.3438 126.734 55.7734 127.062 56.2578C127.406 56.7422 127.578 57.3047 127.578 57.9453C127.578 58.7734 127.352 59.5156 126.898 60.1719C126.445 60.8125 125.844 61.3203 125.094 61.6953C124.359 62.0547 123.555 62.2344 122.68 62.2344ZM133.508 62.0703C133.445 62.0078 133.414 61.8906 133.414 61.7188C133.414 61.5 133.445 61.3906 133.508 61.3906C133.648 61.3906 133.836 61.375 134.07 61.3438C134.305 61.2969 134.523 61.2344 134.727 61.1562C134.93 61.0781 135.047 61 135.078 60.9219C135.141 60.7031 135.18 60.4219 135.195 60.0781C135.227 59.7344 135.242 59.3203 135.242 58.8359V50.3516C135.242 48.9922 135.172 48.1875 135.031 47.9375C134.922 47.7031 134.078 47.5859 132.5 47.5859C131.906 47.5859 131.445 47.6406 131.117 47.75C130.789 47.8438 130.539 48.0391 130.367 48.3359C130.195 48.6328 130.031 49.0781 129.875 49.6719C129.844 49.75 129.766 49.7891 129.641 49.7891C129.375 49.7891 129.188 49.7344 129.078 49.625L129.523 46.2734C129.867 46.3516 130.172 46.4141 130.438 46.4609C130.703 46.5078 130.938 46.5312 131.141 46.5312C132.266 46.5312 133.258 46.5469 134.117 46.5781C134.977 46.6094 135.695 46.625 136.273 46.625C137.477 46.625 138.508 46.6094 139.367 46.5781C140.242 46.5469 140.93 46.5312 141.43 46.5312C141.633 46.5312 141.867 46.5078 142.133 46.4609C142.398 46.4141 142.703 46.3516 143.047 46.2734L143.492 49.625C143.383 49.7344 143.195 49.7891 142.93 49.7891C142.805 49.7891 142.727 49.75 142.695 49.6719C142.555 49.0781 142.391 48.6328 142.203 48.3359C142.031 48.0391 141.781 47.8438 141.453 47.75C141.125 47.6406 140.664 47.5859 140.07 47.5859C138.43 47.5859 137.57 47.7031 137.492 47.9375C137.352 48.4219 137.281 49.2031 137.281 50.2812V58.7422C137.281 59.6484 137.352 60.375 137.492 60.9219C137.523 60.9844 137.641 61.0547 137.844 61.1328C138.047 61.2109 138.266 61.2734 138.5 61.3203C138.734 61.3672 138.898 61.3906 138.992 61.3906C139.055 61.3906 139.086 61.5078 139.086 61.7422C139.086 61.8359 139.07 61.9453 139.039 62.0703C138.258 62.0391 137.641 62.0156 137.188 62C136.734 61.9688 136.445 61.9531 136.32 61.9531L133.508 62.0703ZM142.789 62.0703C142.727 62.0078 142.695 61.8906 142.695 61.7188C142.695 61.5 142.727 61.3906 142.789 61.3906C142.977 61.3906 143.219 61.3516 143.516 61.2734C143.812 61.1953 144.016 61.0859 144.125 60.9453C144.297 60.7266 144.469 60.4375 144.641 60.0781C144.828 59.7188 145.023 59.2734 145.227 58.7422L149.305 48.2656C149.398 48.0312 149.453 47.8672 149.469 47.7734C149.5 47.6797 149.523 47.6016 149.539 47.5391C149.57 47.4609 149.625 47.3359 149.703 47.1641C149.812 46.9453 149.922 46.7734 150.031 46.6484C150.141 46.5234 150.32 46.4609 150.57 46.4609L150.781 46.5312L155.469 58.9062C155.609 59.2656 155.734 59.5859 155.844 59.8672C155.969 60.1484 156.07 60.3906 156.148 60.5938C156.211 60.75 156.344 60.8906 156.547 61.0156C156.766 61.125 156.984 61.2188 157.203 61.2969C157.438 61.3594 157.617 61.3906 157.742 61.3906C157.805 61.3906 157.836 61.5391 157.836 61.8359C157.836 61.8672 157.828 61.9062 157.812 61.9531C157.812 61.9844 157.805 62.0234 157.789 62.0703C157.008 62.0391 156.398 62.0156 155.961 62C155.539 61.9688 155.289 61.9531 155.211 61.9531L152.492 62.0703C152.43 62.0078 152.398 61.8828 152.398 61.6953C152.414 61.4922 152.453 61.3906 152.516 61.3906C152.703 61.3906 152.938 61.3516 153.219 61.2734C153.5 61.1953 153.664 61.0938 153.711 60.9688C153.727 60.9062 153.734 60.8438 153.734 60.7812C153.75 60.7188 153.758 60.6562 153.758 60.5938C153.758 60.3906 153.734 60.1562 153.688 59.8906C153.641 59.6094 153.586 59.3906 153.523 59.2344L152.469 56.3281C152.422 56.2656 152.375 56.2344 152.328 56.2344C151.719 56.1875 151.125 56.1641 150.547 56.1641C150.141 56.1641 149.688 56.1797 149.188 56.2109C148.703 56.2266 148.164 56.25 147.57 56.2812L147.453 56.3516L146.445 58.9297C146.289 59.3203 146.18 59.6484 146.117 59.9141C146.07 60.1797 146.047 60.3906 146.047 60.5469C146.047 60.7656 146.109 60.9219 146.234 61.0156C146.375 61.125 146.602 61.2188 146.914 61.2969C147.227 61.3594 147.453 61.3906 147.594 61.3906C147.641 61.3906 147.664 61.4844 147.664 61.6719C147.68 61.8594 147.672 61.9922 147.641 62.0703L145.227 61.9531C144.789 61.9219 144.359 61.9297 143.938 61.9766C143.531 62.0078 143.148 62.0391 142.789 62.0703ZM149.727 55.0391C150.43 55.0391 151.141 55.0156 151.859 54.9688L151.93 54.8516L150.031 49.6719L148.016 54.8984C148.016 54.9609 148.031 54.9922 148.062 54.9922C148.469 55.0078 148.805 55.0234 149.07 55.0391C149.352 55.0391 149.57 55.0391 149.727 55.0391ZM161.234 62.0703C161.172 62.0078 161.141 61.8906 161.141 61.7188C161.141 61.5 161.172 61.3906 161.234 61.3906C161.375 61.3906 161.562 61.375 161.797 61.3438C162.031 61.2969 162.25 61.2344 162.453 61.1562C162.656 61.0781 162.773 61 162.805 60.9219C162.867 60.7031 162.906 60.4219 162.922 60.0781C162.953 59.7344 162.969 59.3203 162.969 58.8359V50.3516C162.969 48.9922 162.898 48.1875 162.758 47.9375C162.648 47.7031 161.805 47.5859 160.227 47.5859C159.633 47.5859 159.172 47.6406 158.844 47.75C158.516 47.8438 158.266 48.0391 158.094 48.3359C157.922 48.6328 157.758 49.0781 157.602 49.6719C157.57 49.75 157.492 49.7891 157.367 49.7891C157.102 49.7891 156.914 49.7344 156.805 49.625L157.25 46.2734C157.594 46.3516 157.898 46.4141 158.164 46.4609C158.43 46.5078 158.664 46.5312 158.867 46.5312C159.992 46.5312 160.984 46.5469 161.844 46.5781C162.703 46.6094 163.422 46.625 164 46.625C165.203 46.625 166.234 46.6094 167.094 46.5781C167.969 46.5469 168.656 46.5312 169.156 46.5312C169.359 46.5312 169.594 46.5078 169.859 46.4609C170.125 46.4141 170.43 46.3516 170.773 46.2734L171.219 49.625C171.109 49.7344 170.922 49.7891 170.656 49.7891C170.531 49.7891 170.453 49.75 170.422 49.6719C170.281 49.0781 170.117 48.6328 169.93 48.3359C169.758 48.0391 169.508 47.8438 169.18 47.75C168.852 47.6406 168.391 47.5859 167.797 47.5859C166.156 47.5859 165.297 47.7031 165.219 47.9375C165.078 48.4219 165.008 49.2031 165.008 50.2812V58.7422C165.008 59.6484 165.078 60.375 165.219 60.9219C165.25 60.9844 165.367 61.0547 165.57 61.1328C165.773 61.2109 165.992 61.2734 166.227 61.3203C166.461 61.3672 166.625 61.3906 166.719 61.3906C166.781 61.3906 166.812 61.5078 166.812 61.7422C166.812 61.8359 166.797 61.9453 166.766 62.0703C165.984 62.0391 165.367 62.0156 164.914 62C164.461 61.9688 164.172 61.9531 164.047 61.9531L161.234 62.0703ZM172.812 62.0703C172.75 62.0078 172.719 61.8906 172.719 61.7188C172.719 61.5 172.75 61.3906 172.812 61.3906C172.953 61.3906 173.141 61.375 173.375 61.3438C173.609 61.2969 173.828 61.2344 174.031 61.1562C174.234 61.0781 174.352 61 174.383 60.9219C174.445 60.7031 174.484 60.4219 174.5 60.0781C174.531 59.7344 174.547 59.3203 174.547 58.8359V49.7422C174.547 49.2578 174.531 48.8438 174.5 48.5C174.484 48.1406 174.445 47.8594 174.383 47.6562C174.352 47.5625 174.234 47.4844 174.031 47.4219C173.828 47.3438 173.609 47.2812 173.375 47.2344C173.141 47.1875 172.953 47.1641 172.812 47.1641C172.75 47.1641 172.719 47.0625 172.719 46.8594C172.719 46.6719 172.75 46.5469 172.812 46.4844L175.625 46.6016C175.75 46.6016 176.039 46.5938 176.492 46.5781C176.945 46.5469 177.562 46.5156 178.344 46.4844C178.375 46.6094 178.391 46.7266 178.391 46.8359C178.391 47.0547 178.359 47.1641 178.297 47.1641C178.203 47.1641 178.039 47.1953 177.805 47.2578C177.57 47.3047 177.352 47.3672 177.148 47.4453C176.945 47.5078 176.828 47.5781 176.797 47.6562C176.656 48.1875 176.586 48.9141 176.586 49.8359V58.7422C176.586 59.6484 176.656 60.375 176.797 60.9219C176.828 60.9844 176.945 61.0547 177.148 61.1328C177.352 61.2109 177.57 61.2734 177.805 61.3203C178.039 61.3672 178.203 61.3906 178.297 61.3906C178.359 61.3906 178.391 61.5078 178.391 61.7422C178.391 61.8359 178.375 61.9453 178.344 62.0703C177.562 62.0391 176.945 62.0156 176.492 62C176.039 61.9688 175.75 61.9531 175.625 61.9531L172.812 62.0703ZM182.516 59.9141C181.047 58.3828 180.312 56.5156 180.312 54.3125C180.312 53.2188 180.508 52.1953 180.898 51.2422C181.289 50.2734 181.82 49.4297 182.492 48.7109C183.18 47.9766 183.977 47.4062 184.883 47C185.789 46.5781 186.758 46.3672 187.789 46.3672C188.82 46.3672 189.789 46.5781 190.695 47C191.602 47.4062 192.398 47.9766 193.086 48.7109C193.773 49.4297 194.312 50.2734 194.703 51.2422C195.094 52.1953 195.289 53.2188 195.289 54.3125C195.289 56.5156 194.555 58.3828 193.086 59.9141C192.086 60.9766 190.953 61.6797 189.688 62.0234C188.422 62.3828 187.156 62.3828 185.891 62.0234C184.641 61.6797 183.516 60.9766 182.516 59.9141ZM188.164 61.2266C189.164 61.2266 190.039 60.8984 190.789 60.2422C191.539 59.6016 192.086 58.8047 192.43 57.8516C192.789 56.8828 192.969 55.8516 192.969 54.7578C192.969 53.5234 192.766 52.3438 192.359 51.2188C191.953 50.1094 191.32 49.1875 190.461 48.4531C189.602 47.7188 188.594 47.3516 187.438 47.3516C186.453 47.3516 185.602 47.6562 184.883 48.2656C184.164 48.8594 183.609 49.6484 183.219 50.6328C182.828 51.6016 182.633 52.6562 182.633 53.7969C182.633 55.0312 182.836 56.2109 183.242 57.3359C183.648 58.4453 184.281 59.375 185.141 60.125C186 60.8594 187.008 61.2266 188.164 61.2266ZM210.172 62.1172C209.922 62.1172 209.664 61.9375 209.398 61.5781L200.305 48.6875V58.6953C200.305 59.7578 200.359 60.4844 200.469 60.875C200.5 60.9375 200.633 61.0156 200.867 61.1094C201.117 61.1875 201.383 61.2578 201.664 61.3203C201.945 61.3672 202.133 61.3906 202.227 61.3906C202.273 61.3906 202.297 61.4844 202.297 61.6719C202.312 61.8594 202.305 61.9922 202.273 62.0703C201.492 62.0391 200.875 62.0156 200.422 62C199.984 61.9688 199.703 61.9531 199.578 61.9531L196.883 62.0703C196.836 62.0234 196.812 61.9062 196.812 61.7188C196.812 61.5 196.836 61.3906 196.883 61.3906C197.039 61.3906 197.258 61.3672 197.539 61.3203C197.82 61.2578 198.086 61.1875 198.336 61.1094C198.586 61.0156 198.727 60.9219 198.758 60.8281C198.914 60.4531 198.992 59.7188 198.992 58.625V49.4141C198.992 48.6172 198.938 48.0312 198.828 47.6562C198.797 47.5625 198.656 47.4844 198.406 47.4219C198.172 47.3438 197.914 47.2812 197.633 47.2344C197.352 47.1875 197.133 47.1641 196.977 47.1641C196.914 47.1641 196.883 47.0625 196.883 46.8594C196.883 46.6719 196.914 46.5469 196.977 46.4844C197.586 46.5 198.086 46.5156 198.477 46.5312C198.883 46.5312 199.18 46.5312 199.367 46.5312C199.773 46.5312 200.133 46.5312 200.445 46.5312C200.758 46.5156 201.023 46.5 201.242 46.4844C201.539 47.0156 202.344 48.2422 203.656 50.1641C204.984 52.0703 206.828 54.6719 209.188 57.9688C209.234 57.7031 209.258 57.3828 209.258 57.0078V49.7188C209.258 48.7344 209.203 48.0469 209.094 47.6562C209.062 47.5625 208.922 47.4766 208.672 47.3984C208.422 47.3203 208.156 47.2578 207.875 47.2109C207.594 47.1484 207.383 47.1172 207.242 47.1172C207.18 47.1172 207.148 47.0234 207.148 46.8359C207.148 46.6641 207.18 46.5469 207.242 46.4844C207.383 46.4844 207.617 46.5 207.945 46.5312C208.273 46.5469 208.625 46.5703 209 46.6016C209.391 46.6172 209.727 46.625 210.008 46.625C210.414 46.625 210.93 46.6016 211.555 46.5547C212.164 46.5078 212.523 46.4844 212.633 46.4844C212.664 46.6094 212.68 46.7266 212.68 46.8359C212.68 47.0234 212.648 47.1172 212.586 47.1172C212.492 47.1172 212.297 47.1484 212 47.2109C211.703 47.2734 211.422 47.3438 211.156 47.4219C210.906 47.5 210.766 47.5781 210.734 47.6562C210.672 47.9062 210.625 48.2109 210.594 48.5703C210.562 48.9297 210.547 49.3516 210.547 49.8359V58.7422C210.547 59.7109 210.57 60.8047 210.617 62.0234C210.555 62.0859 210.406 62.1172 210.172 62.1172Z" fill="white"/>
</svg>
