<svg width="202" height="71" viewBox="0 0 202 71" fill="none" xmlns="http://www.w3.org/2000/svg">
<path d="M190.526 1H11.4738C11.4738 9 4.49127 11 1 11V59C10.1771 59 11.8063 66.3333 11.4738 70H190.526C190.526 61.2 197.509 59 201 59V11C192.621 10.6 190.526 4.16667 190.526 1Z" fill="#62758A" stroke="#5B6F85"/>
<path d="M185.155 6H16.8454C16.8454 12.8406 10.2818 14.5507 7 14.5507V55.5942C15.6264 55.5942 17.1579 61.8647 16.8454 65H185.155C185.155 57.4754 191.718 55.5942 195 55.5942V14.5507C187.124 14.2087 185.155 8.70773 185.155 6Z" stroke="white" stroke-width="2"/>
<path d="M65.75 28.0684C64.4831 28.0684 63.3757 27.4121 62.4277 26.0996C62.3548 25.9993 62.2591 25.8626 62.1406 25.6895C62.0312 25.5163 61.8262 25.2109 61.5254 24.7734C61.3796 24.5638 61.2474 24.3906 61.1289 24.2539C61.0195 24.1081 60.8874 23.9987 60.7324 23.9258C60.5866 23.8529 60.3861 23.8164 60.1309 23.8164C60.0306 23.8164 59.9486 23.8301 59.8848 23.8574C59.8301 23.8848 59.8027 23.9486 59.8027 24.0488V26.0586C59.8027 26.6602 59.8392 27.0566 59.9121 27.248C59.9486 27.321 60.0352 27.3893 60.1719 27.4531C60.3177 27.5169 60.4727 27.5671 60.6367 27.6035C60.8008 27.6309 60.9193 27.6445 60.9922 27.6445C61.0286 27.6445 61.0469 27.7083 61.0469 27.8359C61.0469 27.8997 61.0378 27.9681 61.0195 28.041C60.5638 28.0228 60.1855 28.0046 59.8848 27.9863C59.5931 27.9681 59.3789 27.9635 59.2422 27.9727L57.5742 28.041C57.5469 28.0137 57.5332 27.9316 57.5332 27.7949C57.5332 27.6764 57.5469 27.6172 57.5742 27.6172C57.6654 27.6172 57.7747 27.6035 57.9023 27.5762C58.0391 27.5488 58.1667 27.5169 58.2852 27.4805C58.4128 27.4349 58.4902 27.3848 58.5176 27.3301C58.5814 27.2298 58.6133 26.8014 58.6133 26.0449V20.877C58.6133 20.6126 58.6042 20.3802 58.5859 20.1797C58.5768 19.9792 58.554 19.8197 58.5176 19.7012C58.4993 19.6465 58.4264 19.5964 58.2988 19.5508C58.1803 19.5052 58.0482 19.4688 57.9023 19.4414C57.7656 19.4141 57.6562 19.4004 57.5742 19.4004C57.5378 19.4004 57.5195 19.3457 57.5195 19.2363C57.5195 19.1178 57.5378 19.0404 57.5742 19.0039L59.2148 19.0312C59.4792 19.0404 59.8027 19.0358 60.1855 19.0176C60.5684 18.9902 60.8874 18.9766 61.1426 18.9766C61.6348 18.9766 62.1042 19.0723 62.5508 19.2637C63.0065 19.4551 63.3757 19.7376 63.6582 20.1113C63.9499 20.485 64.0957 20.9408 64.0957 21.4785C64.0957 21.8613 63.9499 22.2624 63.6582 22.6816C63.3757 23.1009 62.9883 23.4245 62.4961 23.6523C62.4049 23.6888 62.3776 23.7344 62.4141 23.7891C62.8607 24.737 63.3848 25.5391 63.9863 26.1953C64.8613 27.1523 65.5723 27.6309 66.1191 27.6309C66.1465 27.6855 66.1602 27.7493 66.1602 27.8223C66.1602 27.9043 66.1465 27.9727 66.1191 28.0273C66.028 28.0547 65.9049 28.0684 65.75 28.0684ZM60.9922 23.2285H61.334C61.5527 23.2285 61.776 23.1556 62.0039 23.0098C62.2409 22.8639 62.4368 22.6589 62.5918 22.3945C62.7559 22.1302 62.8379 21.8249 62.8379 21.4785C62.8379 20.2116 62.1999 19.5781 60.9238 19.5781C60.5046 19.5781 60.1855 19.61 59.9668 19.6738C59.8848 19.6921 59.8346 19.8424 59.8164 20.125C59.8073 20.3984 59.8027 20.7493 59.8027 21.1777V22.832C59.8027 23.0964 60.1992 23.2285 60.9922 23.2285ZM72.791 28.0547C72.5632 28.0547 72.2624 28.0501 71.8887 28.041C71.5241 28.041 71.0911 28.0365 70.5898 28.0273C70.0885 28.0182 69.6328 28.0091 69.2227 28C68.8125 28 68.4479 28 68.1289 28L66.4746 28.041C66.4473 28.0137 66.4336 27.9408 66.4336 27.8223C66.4336 27.7038 66.4473 27.6445 66.4746 27.6445C66.5566 27.6445 66.666 27.6309 66.8027 27.6035C66.9395 27.5671 67.0671 27.526 67.1855 27.4805C67.3132 27.4349 67.3906 27.3848 67.418 27.3301C67.4818 27.2298 67.5137 26.8014 67.5137 26.0449V20.877C67.5137 20.6126 67.5046 20.3802 67.4863 20.1797C67.4772 19.9792 67.4544 19.8197 67.418 19.7012C67.3997 19.6465 67.3268 19.5964 67.1992 19.5508C67.0807 19.5052 66.9486 19.4688 66.8027 19.4414C66.666 19.4141 66.5566 19.4004 66.4746 19.4004C66.4382 19.4004 66.4199 19.3457 66.4199 19.2363C66.4199 19.1178 66.4382 19.0404 66.4746 19.0039C66.7116 19.013 66.9622 19.0221 67.2266 19.0312C67.5 19.0312 67.7917 19.0312 68.1016 19.0312C68.3112 19.0312 68.5938 19.0267 68.9492 19.0176C69.3047 19.0085 69.7331 18.9948 70.2344 18.9766C70.7448 18.9583 71.1868 18.9447 71.5605 18.9355C71.9434 18.9264 72.2624 18.9219 72.5176 18.9219C72.5358 19.0495 72.5632 19.2044 72.5996 19.3867C72.6361 19.5599 72.6816 19.7513 72.7363 19.9609C72.7819 20.1797 72.8184 20.3574 72.8457 20.4941C72.8822 20.6309 72.9049 20.7266 72.9141 20.7812C72.8685 20.8268 72.7865 20.8496 72.668 20.8496C72.5495 20.8496 72.4857 20.8177 72.4766 20.7539C72.3398 20.2526 72.1484 19.9336 71.9023 19.7969C71.6562 19.651 71.319 19.5781 70.8906 19.5781H69.9746C69.1816 19.5781 68.7806 19.6374 68.7715 19.7559C68.7533 19.8652 68.735 20.0156 68.7168 20.207C68.7077 20.3984 68.7031 20.6309 68.7031 20.9043V23.0918C68.7031 23.1465 68.8991 23.1738 69.291 23.1738H70.0156C70.3255 23.1738 70.5352 23.1738 70.6445 23.1738C70.7539 23.1647 70.8314 23.151 70.877 23.1328C70.9316 23.1146 71.0319 23.0872 71.1777 23.0508C71.2689 23.0326 71.3372 22.9277 71.3828 22.7363C71.4375 22.5358 71.4831 22.3717 71.5195 22.2441C71.5286 22.1803 71.597 22.1484 71.7246 22.1484C71.834 22.1484 71.9115 22.1712 71.957 22.2168V24.8008C71.9206 24.8372 71.8477 24.8555 71.7383 24.8555C71.6198 24.8555 71.5469 24.819 71.5195 24.7461C71.4831 24.6185 71.4512 24.5091 71.4238 24.418C71.3965 24.3268 71.3737 24.2493 71.3555 24.1855C71.3099 24.0579 71.2734 23.985 71.2461 23.9668C71.2279 23.9486 71.1914 23.9212 71.1367 23.8848C71.0091 23.8118 70.526 23.7754 69.6875 23.7754C69.0312 23.7754 68.7031 23.8164 68.7031 23.8984V26.0176C68.7031 26.61 68.7441 27.0247 68.8262 27.2617C68.8535 27.3529 69.1634 27.3984 69.7559 27.3984H70.4121C71.2507 27.3984 71.8249 27.321 72.1348 27.166C72.2715 27.0931 72.4219 26.9336 72.5859 26.6875C72.7591 26.4323 72.8958 26.1315 72.9961 25.7852C73.0143 25.7305 73.0781 25.7031 73.1875 25.7031C73.3607 25.7031 73.4746 25.7305 73.5293 25.7852C73.502 25.8581 73.4564 25.972 73.3926 26.127C73.3379 26.2728 73.2832 26.4232 73.2285 26.5781C73.1738 26.7331 73.1283 26.8652 73.0918 26.9746C73.0371 27.1387 72.9779 27.3255 72.9141 27.5352C72.8503 27.7448 72.8092 27.918 72.791 28.0547ZM77.1934 28.1367C76.9746 28.1367 76.7422 28.1185 76.4961 28.082C76.25 28.0547 76.0449 28.0228 75.8809 27.9863C75.5436 27.9225 75.2975 27.8724 75.1426 27.8359C74.9967 27.7904 74.86 27.7585 74.7324 27.7402C74.6139 27.1751 74.5273 26.7148 74.4727 26.3594C74.418 25.9948 74.3906 25.7305 74.3906 25.5664C74.3906 25.5117 74.4635 25.4844 74.6094 25.4844C74.7734 25.4844 74.8874 25.5254 74.9512 25.6074C75.2702 26.9199 76.0267 27.5762 77.2207 27.5762C77.6764 27.5762 78.0638 27.4395 78.3828 27.166C78.7018 26.8926 78.8613 26.5052 78.8613 26.0039C78.8613 25.8398 78.8249 25.6393 78.752 25.4023C78.6882 25.1654 78.5378 24.9603 78.3008 24.7871C78.1185 24.6504 77.9681 24.5501 77.8496 24.4863C77.7311 24.4134 77.6126 24.3496 77.4941 24.2949C77.3757 24.2311 77.2253 24.1445 77.043 24.0352L76.4961 23.707C76.2135 23.5339 75.931 23.3379 75.6484 23.1191C75.3659 22.8913 75.1289 22.627 74.9375 22.3262C74.7552 22.0254 74.6641 21.6836 74.6641 21.3008C74.6641 20.8177 74.7871 20.3984 75.0332 20.043C75.2884 19.6784 75.6165 19.3958 76.0176 19.1953C76.4277 18.9948 76.8698 18.8945 77.3438 18.8945C77.5443 18.8945 77.7311 18.9082 77.9043 18.9355C78.0866 18.9538 78.237 18.9766 78.3555 19.0039C78.6289 19.0677 78.8203 19.1178 78.9297 19.1543C79.0482 19.1908 79.2077 19.2318 79.4082 19.2773C79.5176 19.7513 79.5723 20.403 79.5723 21.2324C79.5723 21.2962 79.5267 21.3281 79.4355 21.3281C79.2077 21.3281 79.0892 21.2826 79.0801 21.1914C79.0345 20.918 78.9342 20.6491 78.7793 20.3848C78.6243 20.1204 78.4147 19.9017 78.1504 19.7285C77.8861 19.5462 77.5716 19.4551 77.207 19.4551C76.8333 19.4551 76.5417 19.528 76.332 19.6738C76.1224 19.8105 75.972 19.9883 75.8809 20.207C75.7988 20.4167 75.7578 20.64 75.7578 20.877C75.7578 21.1048 75.8125 21.3327 75.9219 21.5605C76.0312 21.7884 76.1908 21.9798 76.4004 22.1348C76.6829 22.3444 76.9655 22.5404 77.248 22.7227C77.5397 22.9049 77.8405 23.0918 78.1504 23.2832C78.4421 23.4655 78.7337 23.6706 79.0254 23.8984C79.3171 24.1172 79.5586 24.3678 79.75 24.6504C79.9505 24.9329 80.0508 25.2611 80.0508 25.6348C80.0508 26.1178 79.9186 26.5508 79.6543 26.9336C79.39 27.3073 79.0391 27.6035 78.6016 27.8223C78.1732 28.0319 77.7038 28.1367 77.1934 28.1367ZM83.5098 28.041C83.4733 28.0046 83.4551 27.9362 83.4551 27.8359C83.4551 27.7083 83.4733 27.6445 83.5098 27.6445C83.5918 27.6445 83.7012 27.6354 83.8379 27.6172C83.9746 27.5898 84.1022 27.5534 84.2207 27.5078C84.3392 27.4622 84.4076 27.4167 84.4258 27.3711C84.4622 27.2435 84.485 27.0794 84.4941 26.8789C84.5124 26.6784 84.5215 26.4368 84.5215 26.1543V21.2051C84.5215 20.4121 84.4805 19.9427 84.3984 19.7969C84.3346 19.6602 83.8424 19.5918 82.9219 19.5918C82.5755 19.5918 82.3066 19.6237 82.1152 19.6875C81.9238 19.7422 81.778 19.8561 81.6777 20.0293C81.5775 20.2025 81.4818 20.4622 81.3906 20.8086C81.3724 20.8542 81.3268 20.877 81.2539 20.877C81.099 20.877 80.9896 20.8451 80.9258 20.7812L81.1855 18.8262C81.3861 18.8717 81.5638 18.9082 81.7188 18.9355C81.8737 18.9629 82.0104 18.9766 82.1289 18.9766C82.7852 18.9766 83.3639 18.9857 83.8652 19.0039C84.3665 19.0221 84.7858 19.0312 85.123 19.0312C85.8249 19.0312 86.4264 19.0221 86.9277 19.0039C87.4382 18.9857 87.8392 18.9766 88.1309 18.9766C88.2493 18.9766 88.3861 18.9629 88.541 18.9355C88.696 18.9082 88.8737 18.8717 89.0742 18.8262L89.334 20.7812C89.2702 20.8451 89.1608 20.877 89.0059 20.877C88.9329 20.877 88.8874 20.8542 88.8691 20.8086C88.7871 20.4622 88.6914 20.2025 88.582 20.0293C88.4818 19.8561 88.3359 19.7422 88.1445 19.6875C87.9531 19.6237 87.6842 19.5918 87.3379 19.5918C86.3809 19.5918 85.8796 19.6602 85.834 19.7969C85.752 20.0794 85.7109 20.5352 85.7109 21.1641V26.0996C85.7109 26.6283 85.752 27.0521 85.834 27.3711C85.8522 27.4076 85.9206 27.4486 86.0391 27.4941C86.1576 27.5397 86.2852 27.5762 86.4219 27.6035C86.5586 27.6309 86.6543 27.6445 86.709 27.6445C86.7454 27.6445 86.7637 27.7129 86.7637 27.8496C86.7637 27.9043 86.7546 27.9681 86.7363 28.041C86.2806 28.0228 85.9206 28.0091 85.6562 28C85.3919 27.9818 85.2233 27.9727 85.1504 27.9727L83.5098 28.041ZM88.9238 28.041C88.8874 28.0046 88.8691 27.9362 88.8691 27.8359C88.8691 27.7083 88.8874 27.6445 88.9238 27.6445C89.0332 27.6445 89.1745 27.6217 89.3477 27.5762C89.5208 27.5306 89.6393 27.4668 89.7031 27.3848C89.8034 27.2572 89.9036 27.0885 90.0039 26.8789C90.1133 26.6693 90.2272 26.4095 90.3457 26.0996L92.7246 19.9883C92.7793 19.8516 92.8112 19.7559 92.8203 19.7012C92.8385 19.6465 92.8522 19.6009 92.8613 19.5645C92.8796 19.5189 92.9115 19.446 92.957 19.3457C93.0208 19.2181 93.0846 19.1178 93.1484 19.0449C93.2122 18.972 93.3171 18.9355 93.4629 18.9355L93.5859 18.9766L96.3203 26.1953C96.4023 26.4049 96.4753 26.5918 96.5391 26.7559C96.612 26.9199 96.6712 27.0612 96.7168 27.1797C96.7533 27.2708 96.8307 27.3529 96.9492 27.4258C97.0768 27.4896 97.2044 27.5443 97.332 27.5898C97.4688 27.6263 97.5736 27.6445 97.6465 27.6445C97.6829 27.6445 97.7012 27.7311 97.7012 27.9043C97.7012 27.9225 97.6966 27.9453 97.6875 27.9727C97.6875 27.9909 97.6829 28.0137 97.6738 28.041C97.2181 28.0228 96.8626 28.0091 96.6074 28C96.3613 27.9818 96.2155 27.9727 96.1699 27.9727L94.584 28.041C94.5475 28.0046 94.5293 27.9316 94.5293 27.8223C94.5384 27.7038 94.5612 27.6445 94.5977 27.6445C94.707 27.6445 94.8438 27.6217 95.0078 27.5762C95.1719 27.5306 95.2676 27.4714 95.2949 27.3984C95.304 27.362 95.3086 27.3255 95.3086 27.2891C95.3177 27.2526 95.3223 27.2161 95.3223 27.1797C95.3223 27.0612 95.3086 26.9245 95.2812 26.7695C95.2539 26.6055 95.222 26.4779 95.1855 26.3867L94.5703 24.6914C94.543 24.6549 94.5156 24.6367 94.4883 24.6367C94.1328 24.6094 93.7865 24.5957 93.4492 24.5957C93.2122 24.5957 92.9479 24.6048 92.6562 24.623C92.3737 24.6322 92.0592 24.6458 91.7129 24.6641L91.6445 24.7051L91.0566 26.209C90.9655 26.4368 90.9017 26.6283 90.8652 26.7832C90.8379 26.9382 90.8242 27.0612 90.8242 27.1523C90.8242 27.2799 90.8607 27.3711 90.9336 27.4258C91.0156 27.4896 91.1478 27.5443 91.3301 27.5898C91.5124 27.6263 91.6445 27.6445 91.7266 27.6445C91.7539 27.6445 91.7676 27.6992 91.7676 27.8086C91.7767 27.918 91.7721 27.9954 91.7539 28.041L90.3457 27.9727C90.0905 27.9544 89.8398 27.959 89.5938 27.9863C89.3568 28.0046 89.1335 28.0228 88.9238 28.041ZM92.9707 23.9395C93.3809 23.9395 93.7956 23.9258 94.2148 23.8984L94.2559 23.8301L93.1484 20.8086L91.9727 23.8574C91.9727 23.8939 91.9818 23.9121 92 23.9121C92.237 23.9212 92.4329 23.9303 92.5879 23.9395C92.752 23.9395 92.8796 23.9395 92.9707 23.9395ZM102.158 28C101.074 28 100.24 27.681 99.6562 27.043C99.0729 26.4049 98.7812 25.375 98.7812 23.9531V20.8496C98.7812 20.5671 98.7721 20.3255 98.7539 20.125C98.7448 19.9154 98.722 19.7513 98.6855 19.6328C98.6673 19.5781 98.599 19.5326 98.4805 19.4961C98.362 19.4505 98.2344 19.4141 98.0977 19.3867C97.9609 19.3594 97.8516 19.3457 97.7695 19.3457C97.7331 19.3457 97.7148 19.2865 97.7148 19.168C97.7148 19.0586 97.7331 18.9857 97.7695 18.9492L99.4102 19.0176C99.4831 19.0176 99.6517 19.013 99.916 19.0039C100.18 18.9857 100.54 18.9674 100.996 18.9492C101.014 19.0221 101.023 19.0859 101.023 19.1406C101.023 19.2773 101.005 19.3457 100.969 19.3457C100.914 19.3457 100.818 19.3639 100.682 19.4004C100.545 19.4277 100.417 19.4642 100.299 19.5098C100.18 19.5462 100.112 19.5872 100.094 19.6328C100.012 19.9427 99.9707 20.3665 99.9707 20.9043V23.9531C99.9707 24.9831 100.189 25.8034 100.627 26.4141C101.064 27.0247 101.684 27.3301 102.486 27.3301C104.045 27.3301 104.824 26.3047 104.824 24.2539V20.8359C104.824 20.2617 104.792 19.8607 104.729 19.6328C104.71 19.5781 104.628 19.528 104.482 19.4824C104.337 19.4368 104.182 19.4004 104.018 19.373C103.854 19.3366 103.73 19.3184 103.648 19.3184C103.612 19.3184 103.594 19.2637 103.594 19.1543C103.594 19.054 103.612 18.9857 103.648 18.9492C103.73 18.9492 103.867 18.9583 104.059 18.9766C104.25 18.9857 104.455 18.9993 104.674 19.0176C104.902 19.0267 105.098 19.0312 105.262 19.0312C105.499 19.0312 105.799 19.0176 106.164 18.9902C106.52 18.9629 106.729 18.9492 106.793 18.9492C106.811 19.0221 106.82 19.0905 106.82 19.1543C106.82 19.2637 106.802 19.3184 106.766 19.3184C106.711 19.3184 106.597 19.3366 106.424 19.373C106.251 19.4095 106.087 19.4505 105.932 19.4961C105.786 19.5417 105.704 19.5872 105.686 19.6328C105.649 19.7786 105.622 19.9564 105.604 20.166C105.585 20.3757 105.576 20.6217 105.576 20.9043V24.2266C105.576 25.1654 105.444 25.9128 105.18 26.4688C104.915 27.0156 104.528 27.4076 104.018 27.6445C103.507 27.8815 102.887 28 102.158 28ZM115.844 28.0684C114.577 28.0684 113.469 27.4121 112.521 26.0996C112.449 25.9993 112.353 25.8626 112.234 25.6895C112.125 25.5163 111.92 25.2109 111.619 24.7734C111.473 24.5638 111.341 24.3906 111.223 24.2539C111.113 24.1081 110.981 23.9987 110.826 23.9258C110.68 23.8529 110.48 23.8164 110.225 23.8164C110.124 23.8164 110.042 23.8301 109.979 23.8574C109.924 23.8848 109.896 23.9486 109.896 24.0488V26.0586C109.896 26.6602 109.933 27.0566 110.006 27.248C110.042 27.321 110.129 27.3893 110.266 27.4531C110.411 27.5169 110.566 27.5671 110.73 27.6035C110.895 27.6309 111.013 27.6445 111.086 27.6445C111.122 27.6445 111.141 27.7083 111.141 27.8359C111.141 27.8997 111.132 27.9681 111.113 28.041C110.658 28.0228 110.279 28.0046 109.979 27.9863C109.687 27.9681 109.473 27.9635 109.336 27.9727L107.668 28.041C107.641 28.0137 107.627 27.9316 107.627 27.7949C107.627 27.6764 107.641 27.6172 107.668 27.6172C107.759 27.6172 107.868 27.6035 107.996 27.5762C108.133 27.5488 108.26 27.5169 108.379 27.4805C108.507 27.4349 108.584 27.3848 108.611 27.3301C108.675 27.2298 108.707 26.8014 108.707 26.0449V20.877C108.707 20.6126 108.698 20.3802 108.68 20.1797C108.671 19.9792 108.648 19.8197 108.611 19.7012C108.593 19.6465 108.52 19.5964 108.393 19.5508C108.274 19.5052 108.142 19.4688 107.996 19.4414C107.859 19.4141 107.75 19.4004 107.668 19.4004C107.632 19.4004 107.613 19.3457 107.613 19.2363C107.613 19.1178 107.632 19.0404 107.668 19.0039L109.309 19.0312C109.573 19.0404 109.896 19.0358 110.279 19.0176C110.662 18.9902 110.981 18.9766 111.236 18.9766C111.729 18.9766 112.198 19.0723 112.645 19.2637C113.1 19.4551 113.469 19.7376 113.752 20.1113C114.044 20.485 114.189 20.9408 114.189 21.4785C114.189 21.8613 114.044 22.2624 113.752 22.6816C113.469 23.1009 113.082 23.4245 112.59 23.6523C112.499 23.6888 112.471 23.7344 112.508 23.7891C112.954 24.737 113.479 25.5391 114.08 26.1953C114.955 27.1523 115.666 27.6309 116.213 27.6309C116.24 27.6855 116.254 27.7493 116.254 27.8223C116.254 27.9043 116.24 27.9727 116.213 28.0273C116.122 28.0547 115.999 28.0684 115.844 28.0684ZM111.086 23.2285H111.428C111.646 23.2285 111.87 23.1556 112.098 23.0098C112.335 22.8639 112.531 22.6589 112.686 22.3945C112.85 22.1302 112.932 21.8249 112.932 21.4785C112.932 20.2116 112.294 19.5781 111.018 19.5781C110.598 19.5781 110.279 19.61 110.061 19.6738C109.979 19.6921 109.928 19.8424 109.91 20.125C109.901 20.3984 109.896 20.7493 109.896 21.1777V22.832C109.896 23.0964 110.293 23.2285 111.086 23.2285ZM116.445 28.041C116.409 28.0046 116.391 27.9362 116.391 27.8359C116.391 27.7083 116.409 27.6445 116.445 27.6445C116.555 27.6445 116.696 27.6217 116.869 27.5762C117.042 27.5306 117.161 27.4668 117.225 27.3848C117.325 27.2572 117.425 27.0885 117.525 26.8789C117.635 26.6693 117.749 26.4095 117.867 26.0996L120.246 19.9883C120.301 19.8516 120.333 19.7559 120.342 19.7012C120.36 19.6465 120.374 19.6009 120.383 19.5645C120.401 19.5189 120.433 19.446 120.479 19.3457C120.542 19.2181 120.606 19.1178 120.67 19.0449C120.734 18.972 120.839 18.9355 120.984 18.9355L121.107 18.9766L123.842 26.1953C123.924 26.4049 123.997 26.5918 124.061 26.7559C124.133 26.9199 124.193 27.0612 124.238 27.1797C124.275 27.2708 124.352 27.3529 124.471 27.4258C124.598 27.4896 124.726 27.5443 124.854 27.5898C124.99 27.6263 125.095 27.6445 125.168 27.6445C125.204 27.6445 125.223 27.7311 125.223 27.9043C125.223 27.9225 125.218 27.9453 125.209 27.9727C125.209 27.9909 125.204 28.0137 125.195 28.041C124.74 28.0228 124.384 28.0091 124.129 28C123.883 27.9818 123.737 27.9727 123.691 27.9727L122.105 28.041C122.069 28.0046 122.051 27.9316 122.051 27.8223C122.06 27.7038 122.083 27.6445 122.119 27.6445C122.229 27.6445 122.365 27.6217 122.529 27.5762C122.693 27.5306 122.789 27.4714 122.816 27.3984C122.826 27.362 122.83 27.3255 122.83 27.2891C122.839 27.2526 122.844 27.2161 122.844 27.1797C122.844 27.0612 122.83 26.9245 122.803 26.7695C122.775 26.6055 122.743 26.4779 122.707 26.3867L122.092 24.6914C122.064 24.6549 122.037 24.6367 122.01 24.6367C121.654 24.6094 121.308 24.5957 120.971 24.5957C120.734 24.5957 120.469 24.6048 120.178 24.623C119.895 24.6322 119.581 24.6458 119.234 24.6641L119.166 24.7051L118.578 26.209C118.487 26.4368 118.423 26.6283 118.387 26.7832C118.359 26.9382 118.346 27.0612 118.346 27.1523C118.346 27.2799 118.382 27.3711 118.455 27.4258C118.537 27.4896 118.669 27.5443 118.852 27.5898C119.034 27.6263 119.166 27.6445 119.248 27.6445C119.275 27.6445 119.289 27.6992 119.289 27.8086C119.298 27.918 119.294 27.9954 119.275 28.041L117.867 27.9727C117.612 27.9544 117.361 27.959 117.115 27.9863C116.878 28.0046 116.655 28.0228 116.445 28.041ZM120.492 23.9395C120.902 23.9395 121.317 23.9258 121.736 23.8984L121.777 23.8301L120.67 20.8086L119.494 23.8574C119.494 23.8939 119.503 23.9121 119.521 23.9121C119.758 23.9212 119.954 23.9303 120.109 23.9395C120.273 23.9395 120.401 23.9395 120.492 23.9395ZM133.535 28.0684C133.389 28.0684 133.239 27.9635 133.084 27.7539L127.779 20.2344V26.0723C127.779 26.6921 127.811 27.1159 127.875 27.3438C127.893 27.3802 127.971 27.4258 128.107 27.4805C128.253 27.526 128.408 27.5671 128.572 27.6035C128.736 27.6309 128.846 27.6445 128.9 27.6445C128.928 27.6445 128.941 27.6992 128.941 27.8086C128.951 27.918 128.946 27.9954 128.928 28.041C128.472 28.0228 128.112 28.0091 127.848 28C127.592 27.9818 127.428 27.9727 127.355 27.9727L125.783 28.041C125.756 28.0137 125.742 27.9453 125.742 27.8359C125.742 27.7083 125.756 27.6445 125.783 27.6445C125.874 27.6445 126.002 27.6309 126.166 27.6035C126.33 27.5671 126.485 27.526 126.631 27.4805C126.777 27.4258 126.859 27.3711 126.877 27.3164C126.968 27.0977 127.014 26.6693 127.014 26.0312V20.6582C127.014 20.1934 126.982 19.8516 126.918 19.6328C126.9 19.5781 126.818 19.5326 126.672 19.4961C126.535 19.4505 126.385 19.4141 126.221 19.3867C126.057 19.3594 125.929 19.3457 125.838 19.3457C125.801 19.3457 125.783 19.2865 125.783 19.168C125.783 19.0586 125.801 18.9857 125.838 18.9492C126.193 18.9583 126.485 18.9674 126.713 18.9766C126.95 18.9766 127.123 18.9766 127.232 18.9766C127.469 18.9766 127.679 18.9766 127.861 18.9766C128.044 18.9674 128.199 18.9583 128.326 18.9492C128.499 19.2591 128.969 19.9746 129.734 21.0957C130.509 22.2077 131.585 23.7253 132.961 25.6484C132.988 25.4935 133.002 25.3066 133.002 25.0879V20.8359C133.002 20.2617 132.97 19.8607 132.906 19.6328C132.888 19.5781 132.806 19.528 132.66 19.4824C132.514 19.4368 132.359 19.4004 132.195 19.373C132.031 19.3366 131.908 19.3184 131.826 19.3184C131.79 19.3184 131.771 19.2637 131.771 19.1543C131.771 19.054 131.79 18.9857 131.826 18.9492C131.908 18.9492 132.045 18.9583 132.236 18.9766C132.428 18.9857 132.633 18.9993 132.852 19.0176C133.079 19.0267 133.275 19.0312 133.439 19.0312C133.676 19.0312 133.977 19.0176 134.342 18.9902C134.697 18.9629 134.907 18.9492 134.971 18.9492C134.989 19.0221 134.998 19.0905 134.998 19.1543C134.998 19.2637 134.98 19.3184 134.943 19.3184C134.889 19.3184 134.775 19.3366 134.602 19.373C134.428 19.4095 134.264 19.4505 134.109 19.4961C133.964 19.5417 133.882 19.5872 133.863 19.6328C133.827 19.7786 133.799 19.9564 133.781 20.166C133.763 20.3757 133.754 20.6217 133.754 20.9043V26.0996C133.754 26.6647 133.768 27.3027 133.795 28.0137C133.758 28.0501 133.672 28.0684 133.535 28.0684ZM138.293 28.041C138.257 28.0046 138.238 27.9362 138.238 27.8359C138.238 27.7083 138.257 27.6445 138.293 27.6445C138.375 27.6445 138.484 27.6354 138.621 27.6172C138.758 27.5898 138.885 27.5534 139.004 27.5078C139.122 27.4622 139.191 27.4167 139.209 27.3711C139.245 27.2435 139.268 27.0794 139.277 26.8789C139.296 26.6784 139.305 26.4368 139.305 26.1543V21.2051C139.305 20.4121 139.264 19.9427 139.182 19.7969C139.118 19.6602 138.626 19.5918 137.705 19.5918C137.359 19.5918 137.09 19.6237 136.898 19.6875C136.707 19.7422 136.561 19.8561 136.461 20.0293C136.361 20.2025 136.265 20.4622 136.174 20.8086C136.156 20.8542 136.11 20.877 136.037 20.877C135.882 20.877 135.773 20.8451 135.709 20.7812L135.969 18.8262C136.169 18.8717 136.347 18.9082 136.502 18.9355C136.657 18.9629 136.794 18.9766 136.912 18.9766C137.568 18.9766 138.147 18.9857 138.648 19.0039C139.15 19.0221 139.569 19.0312 139.906 19.0312C140.608 19.0312 141.21 19.0221 141.711 19.0039C142.221 18.9857 142.622 18.9766 142.914 18.9766C143.033 18.9766 143.169 18.9629 143.324 18.9355C143.479 18.9082 143.657 18.8717 143.857 18.8262L144.117 20.7812C144.053 20.8451 143.944 20.877 143.789 20.877C143.716 20.877 143.671 20.8542 143.652 20.8086C143.57 20.4622 143.475 20.2025 143.365 20.0293C143.265 19.8561 143.119 19.7422 142.928 19.6875C142.736 19.6237 142.467 19.5918 142.121 19.5918C141.164 19.5918 140.663 19.6602 140.617 19.7969C140.535 20.0794 140.494 20.5352 140.494 21.1641V26.0996C140.494 26.6283 140.535 27.0521 140.617 27.3711C140.635 27.4076 140.704 27.4486 140.822 27.4941C140.941 27.5397 141.068 27.5762 141.205 27.6035C141.342 27.6309 141.438 27.6445 141.492 27.6445C141.529 27.6445 141.547 27.7129 141.547 27.8496C141.547 27.9043 141.538 27.9681 141.52 28.041C141.064 28.0228 140.704 28.0091 140.439 28C140.175 27.9818 140.007 27.9727 139.934 27.9727L138.293 28.041Z" fill="white"/>
<path d="M32.7383 51.1758C32.6471 51.1758 32.582 51.1367 32.543 51.0586L28.5391 40.9609C28.2135 40.1016 27.9206 39.4766 27.6602 39.0859C27.569 38.9427 27.3802 38.832 27.0938 38.7539C26.8073 38.6758 26.5794 38.6367 26.4102 38.6367C26.3581 38.6367 26.332 38.5521 26.332 38.3828C26.332 38.2266 26.3581 38.1224 26.4102 38.0703C26.7227 38.0833 27.0742 38.1029 27.4648 38.1289C27.8555 38.1549 28.2526 38.168 28.6562 38.168C28.8125 38.168 29.0924 38.1615 29.4961 38.1484C29.8997 38.1224 30.4271 38.0964 31.0781 38.0703C31.1042 38.1224 31.1107 38.2331 31.0977 38.4023C31.0977 38.5586 31.0781 38.6367 31.0391 38.6367C30.7917 38.6367 30.5378 38.6888 30.2773 38.793C30.0169 38.8971 29.8867 39.0599 29.8867 39.2812C29.8867 39.6589 30.707 41.8529 32.3477 45.8633C32.5299 46.306 32.6862 46.7031 32.8164 47.0547C32.9596 47.3932 33.0833 47.6862 33.1875 47.9336C33.2266 47.9987 33.2786 48.0182 33.3438 47.9922C33.4219 47.9531 33.474 47.901 33.5 47.8359L36.4297 40.7656C36.6771 40.1406 36.8008 39.6849 36.8008 39.3984C36.8008 39.2031 36.7161 39.0534 36.5469 38.9492C36.3776 38.832 36.1823 38.7539 35.9609 38.7148C35.7526 38.6628 35.5768 38.6367 35.4336 38.6367C35.3815 38.6367 35.3555 38.5521 35.3555 38.3828C35.3555 38.2266 35.3815 38.1224 35.4336 38.0703C36.0456 38.0964 36.5208 38.1224 36.8594 38.1484C37.2109 38.1615 37.4323 38.168 37.5234 38.168L39.4961 38.0703C39.5221 38.1745 39.5352 38.2721 39.5352 38.3633C39.5352 38.5456 39.5091 38.6367 39.457 38.6367C38.8711 38.6367 38.4805 38.819 38.2852 39.1836C38.1419 39.457 37.9857 39.763 37.8164 40.1016C37.6602 40.4271 37.4974 40.7917 37.3281 41.1953L33.4219 50.5312C33.2526 50.9609 33.0247 51.1758 32.7383 51.1758ZM52.3477 51.0977C50.5378 51.0977 48.9557 50.1602 47.6016 48.2852C47.4974 48.1419 47.3607 47.9466 47.1914 47.6992C47.0352 47.4518 46.7422 47.0156 46.3125 46.3906C46.1042 46.0911 45.9154 45.8438 45.7461 45.6484C45.5898 45.4401 45.401 45.2839 45.1797 45.1797C44.9714 45.0755 44.6849 45.0234 44.3203 45.0234C44.1771 45.0234 44.0599 45.043 43.9688 45.082C43.8906 45.1211 43.8516 45.2122 43.8516 45.3555V48.2266C43.8516 49.0859 43.9036 49.6523 44.0078 49.9258C44.0599 50.0299 44.1836 50.1276 44.3789 50.2188C44.5872 50.3099 44.8086 50.3815 45.043 50.4336C45.2773 50.4727 45.4466 50.4922 45.5508 50.4922C45.6029 50.4922 45.6289 50.5833 45.6289 50.7656C45.6289 50.8568 45.6159 50.9544 45.5898 51.0586C44.9388 51.0326 44.3984 51.0065 43.9688 50.9805C43.5521 50.9544 43.2461 50.9479 43.0508 50.9609L40.668 51.0586C40.6289 51.0195 40.6094 50.9023 40.6094 50.707C40.6094 50.5378 40.6289 50.4531 40.668 50.4531C40.7982 50.4531 40.9544 50.4336 41.1367 50.3945C41.332 50.3555 41.5143 50.3099 41.6836 50.2578C41.8659 50.1927 41.9766 50.1211 42.0156 50.043C42.1068 49.8997 42.1523 49.2878 42.1523 48.207V40.8242C42.1523 40.4466 42.1393 40.1146 42.1133 39.8281C42.1003 39.5417 42.0677 39.3138 42.0156 39.1445C41.9896 39.0664 41.8854 38.9948 41.7031 38.9297C41.5339 38.8646 41.3451 38.8125 41.1367 38.7734C40.9414 38.7344 40.7852 38.7148 40.668 38.7148C40.6159 38.7148 40.5898 38.6367 40.5898 38.4805C40.5898 38.3112 40.6159 38.2005 40.668 38.1484L43.0117 38.1875C43.3893 38.2005 43.8516 38.194 44.3984 38.168C44.9453 38.1289 45.401 38.1094 45.7656 38.1094C46.4688 38.1094 47.1393 38.2461 47.7773 38.5195C48.4284 38.793 48.9557 39.1966 49.3594 39.7305C49.776 40.2643 49.9844 40.9154 49.9844 41.6836C49.9844 42.2305 49.776 42.8034 49.3594 43.4023C48.9557 44.0013 48.4023 44.4635 47.6992 44.7891C47.569 44.8411 47.5299 44.9062 47.582 44.9844C48.2201 46.3385 48.9688 47.4844 49.8281 48.4219C51.0781 49.7891 52.0938 50.4727 52.875 50.4727C52.9141 50.5508 52.9336 50.6419 52.9336 50.7461C52.9336 50.8633 52.9141 50.9609 52.875 51.0391C52.7448 51.0781 52.569 51.0977 52.3477 51.0977ZM45.5508 44.1836H46.0391C46.3516 44.1836 46.6706 44.0794 46.9961 43.8711C47.3346 43.6628 47.6146 43.3698 47.8359 42.9922C48.0703 42.6146 48.1875 42.1784 48.1875 41.6836C48.1875 39.8737 47.276 38.9688 45.4531 38.9688C44.8542 38.9688 44.3984 39.0143 44.0859 39.1055C43.9688 39.1315 43.8971 39.3464 43.8711 39.75C43.8581 40.1406 43.8516 40.6419 43.8516 41.2539V43.6172C43.8516 43.9948 44.418 44.1836 45.5508 44.1836ZM53.207 51.0586C53.1549 51.0065 53.1289 50.9089 53.1289 50.7656C53.1289 50.5833 53.1549 50.4922 53.207 50.4922C53.3633 50.4922 53.5651 50.4596 53.8125 50.3945C54.0599 50.3294 54.2292 50.2383 54.3203 50.1211C54.4635 49.9388 54.6068 49.6979 54.75 49.3984C54.9062 49.099 55.069 48.7279 55.2383 48.2852L58.6367 39.5547C58.7148 39.3594 58.7604 39.2227 58.7734 39.1445C58.7995 39.0664 58.819 39.0013 58.832 38.9492C58.8581 38.8841 58.9036 38.7799 58.9688 38.6367C59.0599 38.4544 59.151 38.3112 59.2422 38.207C59.3333 38.1029 59.4831 38.0508 59.6914 38.0508L59.8672 38.1094L63.7734 48.4219C63.8906 48.7214 63.9948 48.9883 64.0859 49.2227C64.1901 49.457 64.2747 49.6589 64.3398 49.8281C64.3919 49.9583 64.5026 50.0755 64.6719 50.1797C64.8542 50.2708 65.0365 50.349 65.2188 50.4141C65.4141 50.4661 65.5638 50.4922 65.668 50.4922C65.7201 50.4922 65.7461 50.6159 65.7461 50.8633C65.7461 50.8893 65.7396 50.9219 65.7266 50.9609C65.7266 50.987 65.7201 51.0195 65.707 51.0586C65.056 51.0326 64.5482 51.013 64.1836 51C63.832 50.974 63.6237 50.9609 63.5586 50.9609L61.293 51.0586C61.2409 51.0065 61.2148 50.9023 61.2148 50.7461C61.2279 50.5768 61.2604 50.4922 61.3125 50.4922C61.4688 50.4922 61.6641 50.4596 61.8984 50.3945C62.1328 50.3294 62.2695 50.2448 62.3086 50.1406C62.3216 50.0885 62.3281 50.0365 62.3281 49.9844C62.3411 49.9323 62.3477 49.8802 62.3477 49.8281C62.3477 49.6589 62.3281 49.4635 62.2891 49.2422C62.25 49.0078 62.2044 48.8255 62.1523 48.6953L61.2734 46.2734C61.2344 46.2214 61.1953 46.1953 61.1562 46.1953C60.6484 46.1562 60.1536 46.1367 59.6719 46.1367C59.3333 46.1367 58.9557 46.1497 58.5391 46.1758C58.1354 46.1888 57.6862 46.2083 57.1914 46.2344L57.0938 46.293L56.2539 48.4414C56.1237 48.7669 56.0326 49.0404 55.9805 49.2617C55.9414 49.4831 55.9219 49.6589 55.9219 49.7891C55.9219 49.9714 55.974 50.1016 56.0781 50.1797C56.1953 50.2708 56.3841 50.349 56.6445 50.4141C56.9049 50.4661 57.0938 50.4922 57.2109 50.4922C57.25 50.4922 57.2695 50.5703 57.2695 50.7266C57.2826 50.8828 57.276 50.9935 57.25 51.0586L55.2383 50.9609C54.8737 50.9349 54.5156 50.9414 54.1641 50.9805C53.8255 51.0065 53.5065 51.0326 53.207 51.0586ZM58.9883 45.1992C59.5742 45.1992 60.1667 45.1797 60.7656 45.1406L60.8242 45.043L59.2422 40.7266L57.5625 45.082C57.5625 45.1341 57.5755 45.1602 57.6016 45.1602C57.9401 45.1732 58.2201 45.1862 58.4414 45.1992C58.6758 45.1992 58.8581 45.1992 58.9883 45.1992ZM66.8398 51.0586C66.8008 51.0195 66.7812 50.9219 66.7812 50.7656C66.7812 50.5833 66.8008 50.4922 66.8398 50.4922C66.957 50.4922 67.1133 50.4727 67.3086 50.4336C67.5039 50.3815 67.6862 50.3229 67.8555 50.2578C68.0378 50.1927 68.1484 50.1211 68.1875 50.043C68.2786 49.8997 68.3242 49.2878 68.3242 48.207V40.8242C68.3242 40.4466 68.3112 40.1146 68.2852 39.8281C68.2721 39.5417 68.2396 39.3138 68.1875 39.1445C68.1615 39.0664 68.0573 38.9948 67.875 38.9297C67.7057 38.8646 67.5169 38.8125 67.3086 38.7734C67.1133 38.7344 66.957 38.7148 66.8398 38.7148C66.7878 38.7148 66.7617 38.6367 66.7617 38.4805C66.7617 38.3112 66.7878 38.2005 66.8398 38.1484C67.1784 38.1615 67.5365 38.1745 67.9141 38.1875C68.3047 38.1875 68.7214 38.1875 69.1641 38.1875L71.0586 38.168C71.4362 38.168 71.7487 38.168 71.9961 38.168C72.2435 38.1549 72.4323 38.1484 72.5625 38.1484C73.9818 38.1484 75.1927 38.4414 76.1953 39.0273C77.1979 39.6003 77.9661 40.362 78.5 41.3125C79.0339 42.263 79.3008 43.3047 79.3008 44.4375C79.3008 45.6875 79.0273 46.8203 78.4805 47.8359C77.9466 48.8516 77.1719 49.6523 76.1562 50.2383C75.1536 50.8242 73.9492 51.0977 72.543 51.0586L71.1562 51.0195C70.7656 51.0065 70.4076 51 70.082 51C69.7565 50.987 69.4635 50.987 69.2031 51L66.8398 51.0586ZM72.8555 50.1602C75.8503 50.1602 77.3477 48.2266 77.3477 44.3594C77.3477 43.3698 77.1719 42.4714 76.8203 41.6641C76.4688 40.8568 75.9479 40.2122 75.2578 39.7305C74.5807 39.2487 73.7344 39.0078 72.7188 39.0078H72.6211C71.2148 39.0078 70.4336 39.112 70.2773 39.3203C70.1081 39.5417 70.0234 39.9518 70.0234 40.5508V48.2852C70.0234 48.819 70.1211 49.3138 70.3164 49.7695C70.3424 49.8346 70.4531 49.8932 70.6484 49.9453C70.8438 49.9844 71.0781 50.0234 71.3516 50.0625C71.638 50.0885 71.918 50.1146 72.1914 50.1406C72.4648 50.1536 72.6862 50.1602 72.8555 50.1602ZM85.0039 51.1953C84.6914 51.1953 84.3594 51.1693 84.0078 51.1172C83.6562 51.0781 83.3633 51.0326 83.1289 50.9805C82.6471 50.8893 82.2956 50.8177 82.0742 50.7656C81.8659 50.7005 81.6706 50.6549 81.4883 50.6289C81.319 49.8216 81.1953 49.1641 81.1172 48.6562C81.0391 48.1354 81 47.7578 81 47.5234C81 47.4453 81.1042 47.4062 81.3125 47.4062C81.5469 47.4062 81.7096 47.4648 81.8008 47.582C82.2565 49.457 83.3372 50.3945 85.043 50.3945C85.694 50.3945 86.2474 50.1992 86.7031 49.8086C87.1589 49.418 87.3867 48.8646 87.3867 48.1484C87.3867 47.9141 87.3346 47.6276 87.2305 47.2891C87.1393 46.9505 86.9245 46.6576 86.5859 46.4102C86.3255 46.2148 86.1107 46.0716 85.9414 45.9805C85.7721 45.8763 85.6029 45.7852 85.4336 45.707C85.2643 45.6159 85.0495 45.4922 84.7891 45.3359L84.0078 44.8672C83.6042 44.6198 83.2005 44.3398 82.7969 44.0273C82.3932 43.7018 82.0547 43.3242 81.7812 42.8945C81.5208 42.4648 81.3906 41.9766 81.3906 41.4297C81.3906 40.7396 81.5664 40.1406 81.918 39.6328C82.2826 39.112 82.7513 38.7083 83.3242 38.4219C83.9102 38.1354 84.5417 37.9922 85.2188 37.9922C85.5052 37.9922 85.7721 38.0117 86.0195 38.0508C86.2799 38.0768 86.4948 38.1094 86.6641 38.1484C87.0547 38.2396 87.3281 38.3112 87.4844 38.3633C87.6536 38.4154 87.8815 38.474 88.168 38.5391C88.3242 39.2161 88.4023 40.1471 88.4023 41.332C88.4023 41.4232 88.3372 41.4688 88.207 41.4688C87.8815 41.4688 87.7122 41.4036 87.6992 41.2734C87.6341 40.8828 87.4909 40.4987 87.2695 40.1211C87.0482 39.7435 86.7487 39.431 86.3711 39.1836C85.9935 38.9232 85.5443 38.793 85.0234 38.793C84.4896 38.793 84.0729 38.8971 83.7734 39.1055C83.474 39.3008 83.2591 39.5547 83.1289 39.8672C83.0117 40.1667 82.9531 40.4857 82.9531 40.8242C82.9531 41.1497 83.0312 41.4753 83.1875 41.8008C83.3438 42.1263 83.5716 42.3997 83.8711 42.6211C84.2747 42.9206 84.6784 43.2005 85.082 43.4609C85.4987 43.7214 85.9284 43.9883 86.3711 44.2617C86.7878 44.5221 87.2044 44.8151 87.6211 45.1406C88.0378 45.4531 88.3828 45.8112 88.6562 46.2148C88.9427 46.6185 89.0859 47.0872 89.0859 47.6211C89.0859 48.3112 88.8971 48.9297 88.5195 49.4766C88.1419 50.0104 87.6406 50.4336 87.0156 50.7461C86.4036 51.0456 85.7331 51.1953 85.0039 51.1953ZM99.0664 51.1953C98.7539 51.1953 98.4219 51.1693 98.0703 51.1172C97.7188 51.0781 97.4258 51.0326 97.1914 50.9805C96.7096 50.8893 96.3581 50.8177 96.1367 50.7656C95.9284 50.7005 95.7331 50.6549 95.5508 50.6289C95.3815 49.8216 95.2578 49.1641 95.1797 48.6562C95.1016 48.1354 95.0625 47.7578 95.0625 47.5234C95.0625 47.4453 95.1667 47.4062 95.375 47.4062C95.6094 47.4062 95.7721 47.4648 95.8633 47.582C96.319 49.457 97.3997 50.3945 99.1055 50.3945C99.7565 50.3945 100.31 50.1992 100.766 49.8086C101.221 49.418 101.449 48.8646 101.449 48.1484C101.449 47.9141 101.397 47.6276 101.293 47.2891C101.202 46.9505 100.987 46.6576 100.648 46.4102C100.388 46.2148 100.173 46.0716 100.004 45.9805C99.8346 45.8763 99.6654 45.7852 99.4961 45.707C99.3268 45.6159 99.112 45.4922 98.8516 45.3359L98.0703 44.8672C97.6667 44.6198 97.263 44.3398 96.8594 44.0273C96.4557 43.7018 96.1172 43.3242 95.8438 42.8945C95.5833 42.4648 95.4531 41.9766 95.4531 41.4297C95.4531 40.7396 95.6289 40.1406 95.9805 39.6328C96.3451 39.112 96.8138 38.7083 97.3867 38.4219C97.9727 38.1354 98.6042 37.9922 99.2812 37.9922C99.5677 37.9922 99.8346 38.0117 100.082 38.0508C100.342 38.0768 100.557 38.1094 100.727 38.1484C101.117 38.2396 101.391 38.3112 101.547 38.3633C101.716 38.4154 101.944 38.474 102.23 38.5391C102.387 39.2161 102.465 40.1471 102.465 41.332C102.465 41.4232 102.4 41.4688 102.27 41.4688C101.944 41.4688 101.775 41.4036 101.762 41.2734C101.697 40.8828 101.553 40.4987 101.332 40.1211C101.111 39.7435 100.811 39.431 100.434 39.1836C100.056 38.9232 99.6068 38.793 99.0859 38.793C98.5521 38.793 98.1354 38.8971 97.8359 39.1055C97.5365 39.3008 97.3216 39.5547 97.1914 39.8672C97.0742 40.1667 97.0156 40.4857 97.0156 40.8242C97.0156 41.1497 97.0938 41.4753 97.25 41.8008C97.4062 42.1263 97.6341 42.3997 97.9336 42.6211C98.3372 42.9206 98.7409 43.2005 99.1445 43.4609C99.5612 43.7214 99.9909 43.9883 100.434 44.2617C100.85 44.5221 101.267 44.8151 101.684 45.1406C102.1 45.4531 102.445 45.8112 102.719 46.2148C103.005 46.6185 103.148 47.0872 103.148 47.6211C103.148 48.3112 102.96 48.9297 102.582 49.4766C102.204 50.0104 101.703 50.4336 101.078 50.7461C100.466 51.0456 99.7956 51.1953 99.0664 51.1953ZM108.09 51.0586C108.038 51.0065 108.012 50.9089 108.012 50.7656C108.012 50.5833 108.038 50.4922 108.09 50.4922C108.207 50.4922 108.363 50.4792 108.559 50.4531C108.754 50.4141 108.936 50.362 109.105 50.2969C109.275 50.2318 109.372 50.1667 109.398 50.1016C109.451 49.9193 109.483 49.6849 109.496 49.3984C109.522 49.112 109.535 48.7669 109.535 48.3633V41.293C109.535 40.1602 109.477 39.4896 109.359 39.2812C109.268 39.0859 108.565 38.9883 107.25 38.9883C106.755 38.9883 106.371 39.0339 106.098 39.125C105.824 39.2031 105.616 39.3659 105.473 39.6133C105.329 39.8607 105.193 40.2318 105.062 40.7266C105.036 40.7917 104.971 40.8242 104.867 40.8242C104.646 40.8242 104.49 40.7786 104.398 40.6875L104.77 37.8945C105.056 37.9596 105.31 38.0117 105.531 38.0508C105.753 38.0898 105.948 38.1094 106.117 38.1094C107.055 38.1094 107.882 38.1224 108.598 38.1484C109.314 38.1745 109.913 38.1875 110.395 38.1875C111.397 38.1875 112.257 38.1745 112.973 38.1484C113.702 38.1224 114.275 38.1094 114.691 38.1094C114.861 38.1094 115.056 38.0898 115.277 38.0508C115.499 38.0117 115.753 37.9596 116.039 37.8945L116.41 40.6875C116.319 40.7786 116.163 40.8242 115.941 40.8242C115.837 40.8242 115.772 40.7917 115.746 40.7266C115.629 40.2318 115.492 39.8607 115.336 39.6133C115.193 39.3659 114.984 39.2031 114.711 39.125C114.438 39.0339 114.053 38.9883 113.559 38.9883C112.191 38.9883 111.475 39.0859 111.41 39.2812C111.293 39.6849 111.234 40.3359 111.234 41.2344V48.2852C111.234 49.0404 111.293 49.6458 111.41 50.1016C111.436 50.1536 111.534 50.2122 111.703 50.2773C111.872 50.3424 112.055 50.3945 112.25 50.4336C112.445 50.4727 112.582 50.4922 112.66 50.4922C112.712 50.4922 112.738 50.5898 112.738 50.7852C112.738 50.8633 112.725 50.9544 112.699 51.0586C112.048 51.0326 111.534 51.013 111.156 51C110.779 50.974 110.538 50.9609 110.434 50.9609L108.09 51.0586ZM115.824 51.0586C115.772 51.0065 115.746 50.9089 115.746 50.7656C115.746 50.5833 115.772 50.4922 115.824 50.4922C115.98 50.4922 116.182 50.4596 116.43 50.3945C116.677 50.3294 116.846 50.2383 116.938 50.1211C117.081 49.9388 117.224 49.6979 117.367 49.3984C117.523 49.099 117.686 48.7279 117.855 48.2852L121.254 39.5547C121.332 39.3594 121.378 39.2227 121.391 39.1445C121.417 39.0664 121.436 39.0013 121.449 38.9492C121.475 38.8841 121.521 38.7799 121.586 38.6367C121.677 38.4544 121.768 38.3112 121.859 38.207C121.951 38.1029 122.1 38.0508 122.309 38.0508L122.484 38.1094L126.391 48.4219C126.508 48.7214 126.612 48.9883 126.703 49.2227C126.807 49.457 126.892 49.6589 126.957 49.8281C127.009 49.9583 127.12 50.0755 127.289 50.1797C127.471 50.2708 127.654 50.349 127.836 50.4141C128.031 50.4661 128.181 50.4922 128.285 50.4922C128.337 50.4922 128.363 50.6159 128.363 50.8633C128.363 50.8893 128.357 50.9219 128.344 50.9609C128.344 50.987 128.337 51.0195 128.324 51.0586C127.673 51.0326 127.165 51.013 126.801 51C126.449 50.974 126.241 50.9609 126.176 50.9609L123.91 51.0586C123.858 51.0065 123.832 50.9023 123.832 50.7461C123.845 50.5768 123.878 50.4922 123.93 50.4922C124.086 50.4922 124.281 50.4596 124.516 50.3945C124.75 50.3294 124.887 50.2448 124.926 50.1406C124.939 50.0885 124.945 50.0365 124.945 49.9844C124.958 49.9323 124.965 49.8802 124.965 49.8281C124.965 49.6589 124.945 49.4635 124.906 49.2422C124.867 49.0078 124.822 48.8255 124.77 48.6953L123.891 46.2734C123.852 46.2214 123.812 46.1953 123.773 46.1953C123.266 46.1562 122.771 46.1367 122.289 46.1367C121.951 46.1367 121.573 46.1497 121.156 46.1758C120.753 46.1888 120.303 46.2083 119.809 46.2344L119.711 46.293L118.871 48.4414C118.741 48.7669 118.65 49.0404 118.598 49.2617C118.559 49.4831 118.539 49.6589 118.539 49.7891C118.539 49.9714 118.591 50.1016 118.695 50.1797C118.812 50.2708 119.001 50.349 119.262 50.4141C119.522 50.4661 119.711 50.4922 119.828 50.4922C119.867 50.4922 119.887 50.5703 119.887 50.7266C119.9 50.8828 119.893 50.9935 119.867 51.0586L117.855 50.9609C117.491 50.9349 117.133 50.9414 116.781 50.9805C116.443 51.0065 116.124 51.0326 115.824 51.0586ZM121.605 45.1992C122.191 45.1992 122.784 45.1797 123.383 45.1406L123.441 45.043L121.859 40.7266L120.18 45.082C120.18 45.1341 120.193 45.1602 120.219 45.1602C120.557 45.1732 120.837 45.1862 121.059 45.1992C121.293 45.1992 121.475 45.1992 121.605 45.1992ZM131.195 51.0586C131.143 51.0065 131.117 50.9089 131.117 50.7656C131.117 50.5833 131.143 50.4922 131.195 50.4922C131.312 50.4922 131.469 50.4792 131.664 50.4531C131.859 50.4141 132.042 50.362 132.211 50.2969C132.38 50.2318 132.478 50.1667 132.504 50.1016C132.556 49.9193 132.589 49.6849 132.602 49.3984C132.628 49.112 132.641 48.7669 132.641 48.3633V41.293C132.641 40.1602 132.582 39.4896 132.465 39.2812C132.374 39.0859 131.671 38.9883 130.355 38.9883C129.861 38.9883 129.477 39.0339 129.203 39.125C128.93 39.2031 128.721 39.3659 128.578 39.6133C128.435 39.8607 128.298 40.2318 128.168 40.7266C128.142 40.7917 128.077 40.8242 127.973 40.8242C127.751 40.8242 127.595 40.7786 127.504 40.6875L127.875 37.8945C128.161 37.9596 128.415 38.0117 128.637 38.0508C128.858 38.0898 129.053 38.1094 129.223 38.1094C130.16 38.1094 130.987 38.1224 131.703 38.1484C132.419 38.1745 133.018 38.1875 133.5 38.1875C134.503 38.1875 135.362 38.1745 136.078 38.1484C136.807 38.1224 137.38 38.1094 137.797 38.1094C137.966 38.1094 138.161 38.0898 138.383 38.0508C138.604 38.0117 138.858 37.9596 139.145 37.8945L139.516 40.6875C139.424 40.7786 139.268 40.8242 139.047 40.8242C138.943 40.8242 138.878 40.7917 138.852 40.7266C138.734 40.2318 138.598 39.8607 138.441 39.6133C138.298 39.3659 138.09 39.2031 137.816 39.125C137.543 39.0339 137.159 38.9883 136.664 38.9883C135.297 38.9883 134.581 39.0859 134.516 39.2812C134.398 39.6849 134.34 40.3359 134.34 41.2344V48.2852C134.34 49.0404 134.398 49.6458 134.516 50.1016C134.542 50.1536 134.639 50.2122 134.809 50.2773C134.978 50.3424 135.16 50.3945 135.355 50.4336C135.551 50.4727 135.688 50.4922 135.766 50.4922C135.818 50.4922 135.844 50.5898 135.844 50.7852C135.844 50.8633 135.831 50.9544 135.805 51.0586C135.154 51.0326 134.639 51.013 134.262 51C133.884 50.974 133.643 50.9609 133.539 50.9609L131.195 51.0586ZM140.844 51.0586C140.792 51.0065 140.766 50.9089 140.766 50.7656C140.766 50.5833 140.792 50.4922 140.844 50.4922C140.961 50.4922 141.117 50.4792 141.312 50.4531C141.508 50.4141 141.69 50.362 141.859 50.2969C142.029 50.2318 142.126 50.1667 142.152 50.1016C142.204 49.9193 142.237 49.6849 142.25 49.3984C142.276 49.112 142.289 48.7669 142.289 48.3633V40.7852C142.289 40.3815 142.276 40.0365 142.25 39.75C142.237 39.4505 142.204 39.2161 142.152 39.0469C142.126 38.9688 142.029 38.9036 141.859 38.8516C141.69 38.7865 141.508 38.7344 141.312 38.6953C141.117 38.6562 140.961 38.6367 140.844 38.6367C140.792 38.6367 140.766 38.5521 140.766 38.3828C140.766 38.2266 140.792 38.1224 140.844 38.0703L143.188 38.168C143.292 38.168 143.533 38.1615 143.91 38.1484C144.288 38.1224 144.802 38.0964 145.453 38.0703C145.479 38.1745 145.492 38.2721 145.492 38.3633C145.492 38.5456 145.466 38.6367 145.414 38.6367C145.336 38.6367 145.199 38.6628 145.004 38.7148C144.809 38.7539 144.626 38.806 144.457 38.8711C144.288 38.9232 144.19 38.9818 144.164 39.0469C144.047 39.4896 143.988 40.0951 143.988 40.8633V48.2852C143.988 49.0404 144.047 49.6458 144.164 50.1016C144.19 50.1536 144.288 50.2122 144.457 50.2773C144.626 50.3424 144.809 50.3945 145.004 50.4336C145.199 50.4727 145.336 50.4922 145.414 50.4922C145.466 50.4922 145.492 50.5898 145.492 50.7852C145.492 50.8633 145.479 50.9544 145.453 51.0586C144.802 51.0326 144.288 51.013 143.91 51C143.533 50.974 143.292 50.9609 143.188 50.9609L140.844 51.0586ZM148.93 49.2617C147.706 47.9857 147.094 46.4297 147.094 44.5938C147.094 43.6823 147.257 42.8294 147.582 42.0352C147.908 41.2279 148.35 40.5247 148.91 39.9258C149.483 39.3138 150.147 38.8385 150.902 38.5C151.658 38.1484 152.465 37.9727 153.324 37.9727C154.184 37.9727 154.991 38.1484 155.746 38.5C156.501 38.8385 157.165 39.3138 157.738 39.9258C158.311 40.5247 158.76 41.2279 159.086 42.0352C159.411 42.8294 159.574 43.6823 159.574 44.5938C159.574 46.4297 158.962 47.9857 157.738 49.2617C156.905 50.1471 155.961 50.7331 154.906 51.0195C153.852 51.319 152.797 51.319 151.742 51.0195C150.701 50.7331 149.763 50.1471 148.93 49.2617ZM153.637 50.3555C154.47 50.3555 155.199 50.082 155.824 49.5352C156.449 49.0013 156.905 48.3372 157.191 47.543C157.491 46.7357 157.641 45.8763 157.641 44.9648C157.641 43.9362 157.471 42.9531 157.133 42.0156C156.794 41.0911 156.267 40.3229 155.551 39.7109C154.835 39.099 153.995 38.793 153.031 38.793C152.211 38.793 151.501 39.0469 150.902 39.5547C150.303 40.0495 149.841 40.707 149.516 41.5273C149.19 42.3346 149.027 43.2135 149.027 44.1641C149.027 45.1927 149.197 46.1758 149.535 47.1133C149.874 48.0378 150.401 48.8125 151.117 49.4375C151.833 50.0495 152.673 50.3555 153.637 50.3555ZM171.977 51.0977C171.768 51.0977 171.553 50.9479 171.332 50.6484L163.754 39.9062V48.2461C163.754 49.1315 163.799 49.737 163.891 50.0625C163.917 50.1146 164.027 50.1797 164.223 50.2578C164.431 50.3229 164.652 50.3815 164.887 50.4336C165.121 50.4727 165.277 50.4922 165.355 50.4922C165.395 50.4922 165.414 50.5703 165.414 50.7266C165.427 50.8828 165.421 50.9935 165.395 51.0586C164.743 51.0326 164.229 51.013 163.852 51C163.487 50.974 163.253 50.9609 163.148 50.9609L160.902 51.0586C160.863 51.0195 160.844 50.9219 160.844 50.7656C160.844 50.5833 160.863 50.4922 160.902 50.4922C161.033 50.4922 161.215 50.4727 161.449 50.4336C161.684 50.3815 161.905 50.3229 162.113 50.2578C162.322 50.1797 162.439 50.1016 162.465 50.0234C162.595 49.7109 162.66 49.099 162.66 48.1875V40.5117C162.66 39.8477 162.615 39.3594 162.523 39.0469C162.497 38.9688 162.38 38.9036 162.172 38.8516C161.977 38.7865 161.762 38.7344 161.527 38.6953C161.293 38.6562 161.111 38.6367 160.98 38.6367C160.928 38.6367 160.902 38.5521 160.902 38.3828C160.902 38.2266 160.928 38.1224 160.98 38.0703C161.488 38.0833 161.905 38.0964 162.23 38.1094C162.569 38.1094 162.816 38.1094 162.973 38.1094C163.311 38.1094 163.611 38.1094 163.871 38.1094C164.132 38.0964 164.353 38.0833 164.535 38.0703C164.783 38.513 165.453 39.5352 166.547 41.1367C167.654 42.7253 169.19 44.8932 171.156 47.6406C171.195 47.4193 171.215 47.1523 171.215 46.8398V40.7656C171.215 39.9453 171.169 39.3724 171.078 39.0469C171.052 38.9688 170.935 38.8971 170.727 38.832C170.518 38.7669 170.297 38.7148 170.062 38.6758C169.828 38.6237 169.652 38.5977 169.535 38.5977C169.483 38.5977 169.457 38.5195 169.457 38.3633C169.457 38.2201 169.483 38.1224 169.535 38.0703C169.652 38.0703 169.848 38.0833 170.121 38.1094C170.395 38.1224 170.688 38.1419 171 38.168C171.326 38.181 171.605 38.1875 171.84 38.1875C172.178 38.1875 172.608 38.168 173.129 38.1289C173.637 38.0898 173.936 38.0703 174.027 38.0703C174.053 38.1745 174.066 38.2721 174.066 38.3633C174.066 38.5195 174.04 38.5977 173.988 38.5977C173.91 38.5977 173.747 38.6237 173.5 38.6758C173.253 38.7279 173.018 38.7865 172.797 38.8516C172.589 38.9167 172.471 38.9818 172.445 39.0469C172.393 39.2552 172.354 39.5091 172.328 39.8086C172.302 40.1081 172.289 40.4596 172.289 40.8633V48.2852C172.289 49.0924 172.309 50.0039 172.348 51.0195C172.296 51.0716 172.172 51.0977 171.977 51.0977Z" fill="white"/>
</svg>
